<svg overflow="visible" style="display: block;" viewBox="0 0 160.163 61.9988" fill="none" xmlns="http://www.w3.org/2000/svg">
<g id="Group">
<path id="Vector" d="M130.21 5.56027H160.163V34.1927H130.21V5.56027ZM140.283 8.63715C140.283 9.68713 140.283 10.4952 140.283 11.3077C140.283 15.3387 140.214 19.3697 140.305 23.3962C140.41 28.0069 144.639 31.8371 149.386 31.7594C154.061 31.6818 158.021 27.8335 158.094 23.2592C158.131 20.9036 158.149 18.5434 158.058 16.1924C158.035 15.6446 157.549 15.1105 157.276 14.5718C156.93 15.1242 156.316 15.6674 156.289 16.2381C156.166 18.5845 156.28 20.9447 156.203 23.2957C156.098 26.5872 153.62 29.1345 150.127 29.381C150.127 28.5547 150.127 27.7467 150.127 26.9387C150.127 22.9077 150.218 18.8767 150.091 14.8503C149.95 10.3993 146.121 6.7472 141.651 6.58742C136.945 6.41851 132.689 9.72365 132.307 14.097C132.07 16.8133 132.202 19.566 132.266 22.3005C132.275 22.7525 132.802 23.1907 133.089 23.6381C133.421 23.1633 134.016 22.6977 134.039 22.2047C134.148 20.0043 134.076 17.7993 134.098 15.5944C134.135 11.9697 136.176 9.52279 140.283 8.64172V8.63715Z" fill="var(--fill-0, #5059FF)" fill-opacity="0.3"/>
<path id="Vector_2" d="M87.4254 26.6694C90.0356 27.5048 91.277 26.2722 91.4589 24.1586C91.7181 21.1502 91.8454 18.0961 91.5771 15.1014C91.4816 14.0469 90.0629 13.1156 89.2443 12.125C88.3258 12.9284 87.0162 13.563 86.5797 14.5764C85.8794 16.2062 85.5793 18.0733 85.4338 19.8674C85.07 24.2453 84.8835 28.6415 84.6243 33.1017H74.6749C75.1524 23.903 77.7716 14.6632 73.288 5.49643C76.8485 5.49643 79.927 5.44621 83.001 5.55121C83.4466 5.5649 84.0969 6.27249 84.2469 6.77922C84.6562 8.15332 84.8472 9.59133 85.2428 11.6319C85.7748 10.5957 86.0704 10.0022 86.3841 9.41329C87.8165 6.69705 89.7673 4.74318 93.0959 4.81166C96.5654 4.88013 99.1346 6.50988 100.362 9.70546C102.836 16.1514 102.809 22.6886 99.9168 28.9931C97.5613 34.1334 92.914 34.3434 88.5122 32.983C88.0257 32.8323 87.5391 31.9056 87.4709 31.2984C87.3163 29.8787 87.4209 28.4315 87.4209 26.6648L87.4254 26.6694Z" fill="var(--fill-0, #5059FF)" fill-opacity="0.3"/>
<path id="Vector_3" d="M42.5626 33.1153H31.8583C34.2502 26.4046 36.5966 19.8217 39.0612 12.901H28.0068V0H37.4151V5.3914H49.4153C49.4153 7.48222 49.8336 9.46348 49.3425 11.1754C47.2281 18.5252 44.8498 25.7929 42.558 33.1153H42.5626Z" fill="var(--fill-0, #5059FF)" fill-opacity="0.3"/>
<path id="Vector_4" d="M103.718 5.70183C107.974 5.70183 112.14 5.42336 116.25 5.77487C120.761 6.1629 123.199 8.54589 123.576 13.0699C124.008 18.2057 123.849 23.3871 123.931 28.5502C123.953 29.9837 123.931 31.4171 123.931 33.0195H113.909C113.909 28.4817 113.868 24.0171 113.918 19.5569C114 11.8602 113.586 12.8645 107.247 12.8097C106.124 12.8006 105 12.8097 103.709 12.8097V5.70183H103.718Z" fill="var(--fill-0, #5059FF)" fill-opacity="0.3"/>
<path id="Vector_5" d="M24.2781 5.6425V33.0651H14.5833V5.6425H24.2781Z" fill="var(--fill-0, #5059FF)" fill-opacity="0.3"/>
<path id="Vector_6" d="M22.5634 55.9545H17.034C17.134 50.7138 18.7392 45.4867 16.2609 40.4743C21.6176 39.5795 22.1906 39.8169 22.9409 43.437C23.3956 42.7796 23.7048 42.3551 23.9958 41.9168C25.9329 38.986 29.8209 39.018 31.3624 42.1862C33.2995 46.1715 33.1358 50.3166 31.0304 54.2335C29.9527 56.2376 27.2653 57.1323 25.3054 55.9911C24.5278 55.5346 24.3869 53.9733 23.9549 52.9187C24.2914 52.9553 24.6279 52.9918 24.9644 53.0237C25.5737 52.0285 26.4695 51.1018 26.7242 50.0245C27.0288 48.7325 26.9333 47.2854 26.7151 45.9569C26.6014 45.2676 25.842 44.6878 25.3691 44.0624C24.7779 44.5646 23.8776 44.9572 23.6639 45.5872C23.241 46.8563 23.1273 48.2486 23 49.5999C22.809 51.6359 22.718 53.6811 22.5634 55.9637V55.9545Z" fill="var(--fill-0, #5059FF)" fill-opacity="0.3"/>
<path id="Vector_7" d="M140.515 40.2826H145.685C145.685 43.0719 145.553 45.852 145.721 48.6139C145.889 51.4169 147.631 52.9279 150.296 52.9599C153.179 52.9964 155.034 51.3301 155.143 48.4085C155.243 45.7698 155.166 43.1266 155.166 40.3328H160.04C160.04 43.8342 160.09 47.2855 160 50.7367C159.981 51.4351 159.527 52.1793 159.126 52.8047C157.003 56.1281 151.378 57.5022 146.29 55.9866C142.283 54.7951 140.524 52.2386 140.519 47.5913C140.519 45.2403 140.519 42.8847 140.519 40.278L140.515 40.2826Z" fill="var(--fill-0, #5059FF)" fill-opacity="0.3"/>
<path id="Vector_8" d="M58.387 40.3373C58.387 42.9714 58.3506 45.3909 58.3961 47.8104C58.4597 51.1521 60.1604 52.9644 63.148 52.9644C66.1401 52.9644 67.8726 51.1886 67.9681 47.8698C68.0408 45.3863 67.9817 42.9029 67.9817 40.3054H73.2611C73.0792 43.9209 73.2883 47.5822 72.6154 51.0699C71.8469 55.0552 67.3815 56.9863 61.6155 56.4659C56.7818 56.0322 53.6169 53.5259 53.3304 49.5543C53.1122 46.5459 53.2895 43.5101 53.2895 40.3373H58.3915H58.387Z" fill="var(--fill-0, #5059FF)" fill-opacity="0.3"/>
<path id="Vector_9" d="M0.0908185 23.241V5.65621H9.96746C9.96746 10.2944 9.9902 14.8914 9.93108 19.4839C9.92654 19.8674 9.45817 20.4746 9.08529 20.5933C6.14777 21.5154 3.18295 22.3463 0.0908185 23.241Z" fill="var(--fill-0, #5059FF)" fill-opacity="0.3"/>
<path id="Vector_10" d="M60.8421 5.57856H70.7142C70.7142 10.2852 70.7369 14.9599 70.6687 19.6345C70.6642 19.9815 70.0958 20.511 69.6911 20.6343C66.8172 21.5291 63.9161 22.3416 60.8421 23.2318V5.57856Z" fill="var(--fill-0, #5059FF)" fill-opacity="0.3"/>
<path id="Vector_11" d="M98.2114 44.4733V40.3145H113.704C113.336 42.8984 113.035 45.3407 112.635 47.7648C112.276 49.9378 111.699 52.0742 111.421 54.2564C111.23 55.7309 110.584 56.1737 109.198 56.0596C108.006 55.9592 106.797 56.0368 105.269 56.0368C106.092 52.1382 106.86 48.4678 107.702 44.4733H98.2114Z" fill="var(--fill-0, #5059FF)" fill-opacity="0.3"/>
<path id="Vector_12" d="M44.4267 44.3318H34.9412V40.3054H50.3245C50.0835 42.3871 49.9335 44.3181 49.6152 46.2218C49.1559 48.9882 48.4965 51.7227 48.0736 54.4937C47.8781 55.7674 47.3233 56.128 46.132 56.055C44.7905 55.9728 43.4445 56.0367 41.953 56.0367C42.7806 52.1107 43.5582 48.4221 44.4222 44.3318H44.4267Z" fill="var(--fill-0, #5059FF)" fill-opacity="0.3"/>
<path id="Vector_13" d="M14.3237 55.9363H8.68513C8.68513 52.9781 8.60328 50.1158 8.71241 47.258C8.79426 45.0987 7.92119 44.1903 5.77943 44.2907C3.90596 44.382 2.0234 44.309 0.00441479 44.309V40.246C3.16021 40.246 6.2478 40.1136 9.3172 40.2825C12.6049 40.4606 14.1055 41.9488 14.2828 45.3041C14.4647 48.7691 14.3237 52.2523 14.3237 55.9363Z" fill="var(--fill-0, #5059FF)" fill-opacity="0.3"/>
<path id="Vector_14" d="M75.8801 40.3693C79.3588 40.3693 82.751 40.1821 86.1115 40.4287C88.7807 40.625 90.0903 42.273 90.2267 45.2814C90.3813 48.7509 90.2631 52.234 90.2631 55.8724H84.5881C84.5881 52.9919 84.5245 50.1295 84.6109 47.2763C84.6745 45.1536 83.8469 44.1812 81.6779 44.2907C79.8044 44.3866 77.9264 44.309 75.8892 44.309V40.3693H75.8801Z" fill="var(--fill-0, #5059FF)" fill-opacity="0.3"/>
<path id="Vector_15" d="M121.171 55.9181H115.773V40.3191H121.171V55.9181Z" fill="var(--fill-0, #5059FF)" fill-opacity="0.3"/>
<path id="Vector_16" d="M124.158 40.3054H129.488V55.8998H124.158V40.3054Z" fill="var(--fill-0, #5059FF)" fill-opacity="0.3"/>
<path id="Vector_17" d="M98.2751 48.4039C99.9576 47.993 101.631 47.5822 103.541 47.112V61.9988H98.2751V48.4039Z" fill="var(--fill-0, #5059FF)" fill-opacity="0.3"/>
<path id="Vector_18" d="M34.8047 61.9851C34.8047 57.7532 34.7592 53.6675 34.8638 49.5863C34.8774 49.0841 35.5914 48.3628 36.137 48.1619C37.3966 47.6917 38.7562 47.4817 40.275 47.1165V61.9851H34.8092H34.8047Z" fill="var(--fill-0, #5059FF)" fill-opacity="0.3"/>
<path id="Vector_19" d="M132.357 40.2962H137.95C137.95 42.8709 138 45.3498 137.9 47.8195C137.882 48.2395 137.273 48.8284 136.814 48.9928C135.404 49.4995 133.94 49.8373 132.357 50.2801V40.2962Z" fill="var(--fill-0, #5059FF)" fill-opacity="0.3"/>
<path id="Vector_20" d="M60.7652 40.2689H65.5762V49.4447C64.0665 49.9104 62.5159 50.3943 60.7652 50.933V40.2689Z" fill="var(--fill-0, #5059FF)" fill-opacity="0.3"/>
<path id="Vector_21" d="M147.909 40.2689H152.974C152.974 43.0582 153.006 45.8155 152.934 48.5774C152.924 48.9517 152.447 49.5087 152.065 49.6502C150.746 50.1341 149.373 50.4673 147.904 50.8965V40.2734L147.909 40.2689Z" fill="var(--fill-0, #5059FF)" fill-opacity="0.3"/>
<path id="Vector_22" d="M75.7345 48.4359C77.5897 47.9976 79.3359 47.5868 81.2412 47.1348V55.9044H75.7345V48.4359Z" fill="var(--fill-0, #5059FF)" fill-opacity="0.3"/>
<path id="Vector_23" d="M0 48.4313C1.75069 48.0113 3.4741 47.6004 5.33848 47.153V55.877H0V48.4313Z" fill="var(--fill-0, #5059FF)" fill-opacity="0.3"/>
<path id="Vector_24" d="M142.275 8.76044C145.462 9.09826 147.654 10.9517 147.881 13.5447C148.345 18.7809 148.018 24.081 148.018 29.3719C145.23 29.1026 142.452 26.9935 142.343 24.5146C142.116 19.3104 142.275 14.0925 142.275 8.76044Z" fill="var(--fill-0, #5059FF)" fill-opacity="0.3"/>
</g>
</svg>
