<svg overflow="visible" style="display: block;" viewBox="0 0 242.333 162.667" fill="none" xmlns="http://www.w3.org/2000/svg">
<g id="Frame 38">
<rect width="242.333" height="162.667" rx="12" fill="var(--fill-0, #5059FF)" fill-opacity="0.12"/>
<path id="Union" d="M175.94 112.14C175.781 114.68 175.9 117.361 175.871 119.91C175.856 121.149 175.918 122.454 175.789 123.684C175.269 123.804 174.2 123.889 173.604 123.969C173.282 124.062 173.231 124.039 172.996 123.844C172.677 123.104 172.883 120.873 172.879 119.959L172.868 115.539C172.869 114.785 172.836 113.549 172.948 112.835C173.271 112.415 174.557 112.283 175.113 112.195L175.94 112.14ZM163.678 107.151C163.671 109.822 163.703 112.666 163.588 115.32C163.466 120.777 155.446 120.449 152.026 118.337C153.188 116.3 153.374 116.444 155.422 117.362C154.747 114.313 154.108 110.541 153.258 107.589C153.878 107.445 154.736 107.343 155.383 107.249C155.664 107.196 155.824 107.218 156.052 107.339C156.292 107.862 156.522 109.035 156.694 109.645C157.45 112.317 157.878 114.664 158.29 117.404C159.062 117.074 159.643 116.828 160.313 116.321C161.034 113.687 160.175 110.407 160.826 107.774C160.894 107.499 163.302 107.207 163.678 107.151ZM209.322 107.16C209.261 109.22 208.559 111.693 208.337 113.78C208.291 114.208 207.918 115.605 207.984 115.881C208.146 116.559 209.479 118.145 210 118.568V118.83C208.953 119.038 207.719 119.053 206.776 119.302C205.427 117.789 202.47 113.929 201.472 112.178C201.347 113.001 200.45 118.223 200.239 118.613C199.516 119.137 198.346 119.106 197.428 119.172C197.474 116.451 198.431 113.045 198.876 110.339C199.09 109.036 198.319 108.663 197.562 107.607C198.203 107.494 200.73 106.917 201.132 107.365C202.798 109.224 203.967 111.39 205.658 113.262C205.825 111.974 206.017 108.828 206.634 107.743C206.85 107.361 208.754 107.224 209.322 107.16ZM188.483 107.252C190.028 107.123 191.822 107.337 193.124 108.229C194.055 108.867 194.599 109.705 194.803 110.82C194.965 111.71 195.255 118.155 194.957 118.548C194.65 118.953 193.791 119.066 193.311 119.138C192.932 119.195 192.384 119.329 192.067 119.094C191.931 118.763 191.984 118.296 191.998 117.926C192.012 116.15 192.152 113.4 191.914 111.702C191.493 108.683 187.668 109.81 185.823 110.435C185.526 110.535 184.537 109.016 184.255 108.703C185.496 107.765 186.972 107.418 188.483 107.252ZM175.807 107.339C177.872 107.212 181.065 107.45 182.486 109.242C183.418 110.417 183.382 112.481 183.178 113.897C182.973 115.32 182.366 116.941 181.4 118.04C181.196 118.27 180.213 118.976 179.915 119.195C179.578 118.842 178.96 118.279 178.803 117.858L178.319 117.037C180.219 115.189 181.927 111.087 178.377 109.944C176.928 109.477 173.838 109.768 172.469 110.458C172.234 106.946 172.59 107.659 175.807 107.339ZM169.111 107.247C169.379 107.183 169.525 107.173 169.722 107.348C169.838 108.291 169.886 112.412 169.647 113.504C169.606 113.689 167.885 113.965 167.463 114.069C167.229 114.107 167.075 114.117 166.843 114.13L166.739 114.034C166.656 113.263 166.647 108.081 166.876 107.694C167.407 107.427 168.493 107.331 169.111 107.247ZM70.5947 91.778C70.6911 91.7938 70.6636 91.7996 70.7598 91.8805L70.749 99.5104C60.5373 100.772 48.7435 105.228 38.8291 100.092C37.9601 99.7213 36.6411 98.7864 35.8262 98.2242C36.7828 98.037 37.8333 97.9232 38.8135 97.736L70.5947 91.778ZM172.544 65.1823C181.962 57.0494 206.052 56.2235 209.442 71.6403C209.622 72.4571 209.597 73.1807 210 73.9449V99.4606C209.334 99.6262 208.505 99.7031 207.807 99.818C199.389 101.203 190.756 103.867 182.245 101.639C178.37 100.625 175.128 99.1737 173.002 95.6803C169.852 90.5026 170.702 82.8387 176.213 79.6364C181.327 76.6609 187.763 75.6711 193.583 76.611C194.703 76.792 196.303 77.4235 197.494 77.734C197.293 76.3251 197.684 74.5521 196.837 73.3365C192.459 67.0566 183.194 70.5966 178.26 73.4762C177.116 72.3928 173.4 66.6654 172.544 65.1823ZM121.137 46.9772C121.458 47.7569 121.229 74.1792 121.332 77.1559C122.389 75.8898 123.921 74.8553 125.06 73.6803C126.173 72.5321 127.136 71.2892 128.294 70.1471C129.736 68.7725 131.061 66.1212 132.455 64.8483C133.282 64.0937 138.415 63.5654 139.615 63.3209C140.691 63.1015 142.086 62.7129 143.073 62.5504C145.01 62.2318 146.896 61.8987 148.813 61.5563L148.877 61.6305C148.879 61.6592 148.881 61.7777 148.871 61.7955C145.846 67.7843 141.747 73.1444 137.12 77.986C136.303 78.8408 135.11 80.2619 134.193 80.9176C134.924 82.2408 137.895 85.199 138.987 86.4635C139.493 87.0482 140.151 87.8493 140.653 88.4283L144.825 93.1774L148.031 96.8121C148.491 97.3362 149.061 97.8685 149.435 98.4342L150.192 99.4156C147.341 99.6966 144.221 100.476 141.383 100.948C140.089 101.163 137.301 101.902 136.072 101.797C135.797 101.586 135.619 101.37 135.393 101.113C131.809 97.0496 128.263 92.9538 124.702 88.8698C124.421 88.5473 124.172 88.2494 123.913 87.9078C123.249 88.1899 122.154 88.6756 121.661 89.1842C120.975 89.8926 121.303 97.8856 121.319 99.4362C120.176 99.7362 118.843 99.8104 117.69 100.051C114.728 100.671 111.511 101.101 108.577 101.764L108.567 65.9215V55.6207C108.567 53.5912 108.609 51.359 108.521 49.3522C109.1 49.2157 109.731 49.0515 110.312 48.9498C113.855 48.3308 117.363 47.5369 120.911 46.9557C121.042 46.9227 120.982 46.9353 121.137 46.9772ZM166.766 58.4489C167.022 58.8759 166.912 66.2254 166.911 67.3268L166.909 83.8444L166.911 94.2086C166.914 95.8013 167.012 97.8547 166.924 99.3883C166.211 99.6812 164.325 99.8483 163.407 100.032C160.511 100.611 157.451 101.064 154.569 101.664C154.27 101.647 154.375 101.694 154.168 101.497C154.037 101.072 154.148 95.0398 154.148 93.9987C154.148 90.7529 153.992 61.2872 154.247 60.733C154.457 60.2774 165.141 58.8145 166.555 58.317L166.766 58.4489ZM98.7744 59.2086C100.246 59.1922 101.799 59.3977 103.283 59.5172C103.437 62.9118 103.293 67.1775 103.307 70.6647C101.767 70.5405 100.433 70.098 98.8555 70.2067C95.9454 70.4517 93.0157 71.1497 90.9932 73.3727C88.8845 75.6905 89.1486 77.443 89.1572 80.401L89.1611 85.2096L89.1621 94.2838C89.1633 95.9466 89.1255 97.8097 89.1924 99.4596C87.1225 99.8752 84.7479 100.107 82.5947 100.574C81.4755 100.816 77.6117 101.592 76.5781 101.633L76.4727 101.535C76.34 101.158 76.3933 100.593 76.4053 100.177L76.4111 73.4528C76.4112 69.6182 76.3104 65.3018 76.4385 61.5074C76.6396 61.4289 76.846 61.3638 77.0557 61.3121C78.8297 60.8903 80.7385 60.6418 82.5439 60.3444C83.2278 60.2315 86.8215 59.3281 87.2979 59.6198C87.519 60.2086 87.3685 65.3417 87.3613 66.3307C88.7756 64.064 88.9075 63.3374 91.2422 61.6862C93.875 59.824 95.6474 59.4468 98.7744 59.2086ZM44.6191 90.5309C44.7201 90.522 44.9234 90.5219 44.9893 90.5973C47.5287 93.5019 49.0877 93.4545 52.8516 93.485C50.5903 94.4417 48.0895 94.7815 45.6797 95.1393C44.5423 95.3082 43.4214 95.5535 42.293 95.7682C41.3953 95.9389 40.5458 96.0009 39.667 96.274C38.6342 96.6063 37.0918 96.5805 36.0576 96.9586C33.9816 97.7175 33.2304 94.7496 32.5264 93.0573C35.1771 92.2654 38.26 91.9183 40.9971 91.2858C42.1752 91.0135 43.4525 90.9472 44.6191 90.5309ZM197.429 84.8639C194.961 84.3421 193.686 84.0688 191.105 84.1422C189.197 84.2492 188.404 84.3756 186.591 85.2057C183.704 86.5273 183.204 89.7349 185.602 91.8414C187.126 93.1803 188.676 93.3229 190.661 93.4576C192.944 93.5088 195.225 93.2656 197.446 92.735C197.348 90.5112 197.362 87.1299 197.429 84.8639ZM70.6973 85.8092C70.8445 86.2307 70.7555 89.7374 70.752 90.4274C67.9779 91.0576 65.2548 91.5531 62.4521 92.0377C61.3257 92.2324 59.3358 92.7701 58.2529 92.7418C57.6495 92.2674 57.6924 88.7181 58.2773 88.4186C59.4888 87.8026 61.5609 87.6087 62.9414 87.3395C65.4613 86.8479 68.0248 86.2245 70.542 85.7916L70.6973 85.8092ZM44.5381 87.9039C44.7488 88.179 44.6773 88.8455 44.6592 89.2096C43.9624 89.4823 43.4607 89.4826 42.752 89.6364C41.1584 89.9821 39.525 90.2662 37.9082 90.4772C36.1982 90.7004 33.6654 91.6153 32 91.2955V90.1989C35.2357 89.6467 38.4559 88.8096 41.7266 88.4166C42.629 88.3082 43.6448 87.9503 44.5381 87.9039ZM70.6201 77.0553C70.8348 77.4359 70.7688 81.0895 70.7695 81.7731C69.2021 82.127 67.5359 82.3287 65.9609 82.5953C61.9619 83.2609 57.8736 84.6407 53.791 84.1744C52.7649 84.0573 50.3215 84.1419 49.3281 84.3795C46.9261 84.9542 46.0435 86.3275 43.3828 86.7506C39.5742 87.3561 35.8717 88.3888 32 88.7604V86.8307C32.735 85.6441 32.2698 84.0451 33.9873 83.6666C36.983 83.0069 40.0504 82.5831 43.0664 82.0729C45.4508 81.6695 47.7932 80.8852 50.248 80.6871C52.3471 80.3525 54.4955 79.8454 56.5977 79.4772L65.8984 77.8112C67.5289 77.5296 68.9296 77.3999 70.6201 77.0553ZM70.7168 83.2487C70.8072 83.5764 70.7552 84.2241 70.7422 84.5885C68.1481 84.774 64.9705 85.7564 62.3086 86.0192C61.1373 86.1347 59.3353 86.7368 58.1846 86.5856C57.9383 86.253 57.8522 86.0996 57.9707 85.694C58.9157 84.8444 68.054 83.8592 69.7012 83.3307C69.8696 83.2767 70.4379 83.2124 70.6504 83.1969L70.7168 83.2487ZM48.6143 76.3385C50.0985 76.1904 52.3042 76.3274 53.7939 76.5299C54.4212 76.6152 57.6325 77.4301 57.9102 77.8043L57.8076 77.9586C57.2911 78.2135 56.3308 78.2766 55.7275 78.3873L49.3418 79.4967C47.086 79.9043 44.3973 80.5607 42.1562 80.8307C41.3056 80.9436 40.458 81.0808 39.6152 81.2428C38.7856 81.4066 34.9663 82.3865 34.4424 82.1285C34.5599 81.8712 34.6943 81.735 34.8633 81.5221C36.9217 78.9244 40.0649 78.0575 43.0996 77.2487C45.2857 76.666 46.3516 76.4285 48.6143 76.3385ZM61.0264 61.6266C62.7774 61.4394 65.866 64.1873 66.9717 65.4694C68.0175 66.6823 69.371 69.0976 69.7773 70.6881C70.0369 71.7044 71.0318 74.739 70.6191 75.6246C68.7925 76.1619 66.3872 76.1576 64.4912 76.7018C63.6644 76.9391 58.7141 78.0097 58.1592 77.8229C58.0301 77.0818 58.0891 76.1823 58.042 75.4235C57.8846 72.8875 56.2557 71.4065 53.9893 70.5035C52.3064 69.8331 50.7364 69.7815 48.9258 69.9215C46.5072 70.1393 44.0589 70.9631 41.8223 71.9C41.0292 72.2323 39.7636 73.3047 38.9189 73.2428C38.2169 73.1895 35.0037 67.6504 34.1777 66.7262L34.1436 66.6881C36.6703 65.852 40.0316 65.5317 42.665 65.0592C44.8177 64.6729 47.0471 64.1667 49.2158 63.7887C50.2291 63.5534 51.5238 63.5718 52.5098 63.2975C55.3209 62.5153 58.192 62.2257 61.0264 61.6266ZM49.8779 59.6442C51.0818 59.5795 52.1111 59.6405 53.3027 59.7028C55.215 59.8028 56.9829 60.2841 58.875 60.5377C55.8016 61.4099 52.0028 62.0035 48.8398 62.4957C47.6047 62.6879 46.554 63.0767 45.4189 63.2858C43.9355 63.559 42.3326 63.7488 40.8242 64.0006C39.7171 64.2516 38.5903 64.45 37.4707 64.6393C36.3595 64.8272 34.7119 65.246 33.6436 65.3082L33.6279 65.1705C33.6667 65.1171 33.7081 65.0655 33.752 65.0162C36.997 61.3314 45.187 59.8271 49.8779 59.6442ZM166.787 38.6666C166.986 40.1987 166.929 42.8789 166.913 44.5065C166.891 46.792 166.978 49.0135 166.983 51.277C166.314 51.5746 155.089 53.7724 154.337 53.7125L154.204 53.5504C154.075 52.7766 154.143 48.542 154.144 47.5826L154.146 43.6725C154.147 42.9403 154.083 42.123 154.207 41.402C154.246 41.1754 154.306 41.0298 154.521 40.9186C155.337 40.4966 157.464 40.3309 158.449 40.1832C159.239 40.0649 165.68 39.0088 166.08 38.7028C166.095 38.6911 166.109 38.6786 166.125 38.6666H166.787Z" fill="var(--fill-0, #5059FF)" fill-opacity="0.3"/>
</g>
</svg>
