<svg overflow="visible" style="display: block;" viewBox="0 0 242.333 162.667" fill="none" xmlns="http://www.w3.org/2000/svg">
<g id="Frame 36">
<rect width="242.333" height="162.667" rx="12" fill="var(--fill-0, #5059FF)" fill-opacity="0.12"/>
<path id="Union" d="M62.0757 70.2318C65.5778 65.6686 72.9705 65.7948 76.1626 70.6009C77.8382 73.1162 77.6309 74.7375 77.6294 77.6077L77.6274 83.8001L77.6245 92.3821C77.6264 93.6482 77.7741 96.2918 77.4751 97.429C76.426 101.419 73.3206 103.379 69.481 103.995H68.3237C65.5994 103.429 63.4069 102.582 61.771 100.173C61.3646 99.5748 60.623 98.2453 60.5239 97.5569C60.2618 95.7353 60.3413 93.6755 60.3403 91.8196L60.3394 82.9837L60.3433 77.1282C60.3464 74.2012 60.1862 72.6937 62.0757 70.2318ZM199.035 67.3226C203.382 67.2381 207.474 67.1431 209.689 71.6224C210.118 72.4919 209.956 73.7001 210.641 74.1575L210.667 74.1741V96.4095C210.198 96.7619 210.005 98.1996 209.792 98.8294C208.91 101.432 205.476 103.556 202.801 103.484C201.283 103.442 195.145 103.853 194.046 103.424C193.82 102.857 193.926 96.3881 193.926 95.3157L193.924 81.4134L193.923 72.7864C193.923 71.0598 193.87 69.0676 193.998 67.3694C195.518 67.2424 197.405 67.3543 199.035 67.3226ZM135.637 67.2952C135.996 67.2813 136.205 67.3386 136.454 67.5706C136.574 68.33 136.526 70.1767 136.524 71.013L136.51 77.1595L136.496 98.3675C138.026 98.416 145.917 98.3469 146.684 98.6175C146.867 98.9772 146.838 103.022 146.661 103.339C146.154 103.713 143.09 103.562 142.331 103.555L135.463 103.562C134.593 103.562 131.942 103.631 131.208 103.417C131.039 102.705 131.089 100.289 131.089 99.4417L131.087 92.4212L131.09 76.7493C131.091 73.7023 131.03 70.4155 131.149 67.39C132.306 67.2631 134.271 67.3291 135.542 67.3011C135.574 67.2985 135.605 67.2964 135.637 67.2952ZM184.89 67.3353C185.88 67.2927 188.799 67.2423 189.737 67.2923C189.982 67.4953 189.922 67.4834 190.031 67.8255C190.138 67.8808 190.245 67.9395 190.349 68.0013C190.453 70.18 190.361 72.8729 190.362 75.1028L190.365 89.1165L190.364 97.9525C190.367 99.2637 190.451 101.607 190.326 102.812C190.227 102.892 190.195 102.927 190.074 102.977L189.997 103.204C189.971 103.295 189.949 103.447 189.881 103.463C189.093 103.653 185.656 103.608 185.036 103.448C184.622 101.824 183.821 100.239 183.288 98.6497C181.402 93.0344 179.182 87.5073 177.213 81.9319C177.041 83.1969 177.121 86.6254 177.121 88.0804L177.124 97.9417C177.124 99.724 177.173 101.811 177.091 103.572C175.446 103.53 173.69 103.566 172.032 103.551C171.929 102.428 171.987 100.439 171.988 99.2415L171.989 91.4134L172.006 67.3392C173.399 67.2542 175.481 67.3158 176.963 67.2874C177.177 68.1933 177.705 69.3064 178.001 70.2191C179.043 73.424 180.358 76.4978 181.362 79.7132C181.789 81.0793 182.414 82.4621 182.836 83.8519C183.375 85.6209 184.2 87.3506 184.803 89.0931C184.976 87.2496 184.818 84.7149 184.858 82.7855C184.962 77.7465 184.695 72.3421 184.89 67.3353ZM160.198 67.3109C161.377 67.1915 161.341 67.4243 161.597 68.5814L167.061 92.7659L168.375 99.0696C168.565 99.976 168.522 100.974 169.106 101.682C169.108 102.39 169.143 102.865 169.217 103.571C167.535 103.546 165.838 103.599 164.158 103.534C163.942 101.681 163.222 99.5969 163.024 97.6907C162.962 97.0932 162.706 96.5889 162.651 95.8607C161.093 95.8802 159.533 95.8913 157.975 95.8939C155.299 95.8669 155.577 95.6225 155.214 98.2806C155.148 98.7644 154.953 99.3729 154.846 99.8753C154.607 101.003 154.729 102.327 154.065 103.31C153.776 103.726 152.098 103.537 151.614 103.548C151.072 103.56 149.43 103.691 149.07 103.386C148.983 103.067 150.134 98.2242 150.306 97.4144L155.169 75.3558C155.533 73.7108 155.879 72.0479 156.278 70.4056C156.427 69.7894 156.693 68.0254 156.892 67.556C157.351 67.2113 159.469 67.318 160.198 67.3109ZM50.8198 67.6224C51.0312 66.9932 55.0814 67.2026 55.8608 67.178C56.0295 68.8021 55.9139 71.9512 55.9106 73.7376L55.9077 86.1829L55.9126 97.9134C55.9135 99.1316 55.9986 102.452 55.8765 103.572C54.2219 103.553 52.5672 103.551 50.9126 103.566C50.7457 101.948 50.841 98.6329 50.8413 96.8655L50.8315 83.6614L50.6763 83.6966C50.3463 83.5338 50.3178 83.5398 50.1841 83.1605C49.925 83.6987 49.6547 84.8343 49.4351 85.4671C48.1428 89.1903 47.023 92.9808 45.7515 96.7093C45.5618 97.2626 43.5645 97.2709 43.145 97.0101C42.8827 96.8468 42.6668 96.1598 42.5708 95.8646C41.5676 92.6906 40.5379 89.5247 39.4829 86.3675C39.0008 84.9338 38.5603 83.1484 37.8022 81.9222C38.0413 87.4488 38.1015 92.8815 38.0288 98.4183C38.0192 99.1492 38.1229 102.891 37.856 103.352C37.2565 103.7 33.6333 103.553 32.6665 103.545V67.2435C33.402 67.2249 36.9352 67.1064 37.4224 67.2405C38.1177 67.9791 39.8118 73.6357 40.312 74.9905C41.4574 78.0928 42.4701 81.4244 43.6401 84.5345C43.8916 85.2343 43.9851 85.8668 44.1841 86.5179C44.9744 85.2955 45.0559 84.4847 45.5073 83.1185L46.9204 78.8812C48.1803 75.1206 49.5572 71.3815 50.8198 67.6224ZM127.045 67.1771C127.136 68.6271 127.073 70.7092 127.059 72.2073C124.064 72.1394 119.985 72.1961 116.986 72.2698C117.044 72.4408 117.17 72.8857 117.166 73.056C117.13 74.4817 117.349 81.604 117.065 82.5013L116.872 82.6839C117.722 82.8374 119.763 82.806 120.683 82.7972C122.243 82.7822 124.044 82.8312 125.59 82.7425C125.628 83.1506 125.683 83.6221 125.685 84.0267H125.686C125.752 83.6798 125.706 83.5695 125.925 83.3841C126.342 83.8178 126.114 85.7408 126.166 86.3626C126.242 87.2982 125.945 87.1232 125.667 87.6898C125.214 87.8199 124.009 87.7457 123.488 87.763C121.491 87.8294 118.81 87.5863 116.876 87.886C116.717 89.0106 116.753 97.2776 116.926 98.3568C118.537 98.4709 120.343 98.4371 121.972 98.4339C123.626 98.4308 125.415 98.4616 127.055 98.3802C127.079 100.091 127.078 101.803 127.053 103.514C125.668 103.634 123.26 103.556 121.768 103.557L111.735 103.554C111.624 102.652 111.68 100.338 111.68 99.3275L111.683 91.2689L111.679 76.0228C111.679 73.1671 111.63 70.1766 111.707 67.3392C111.977 67.3237 112.268 67.3197 112.558 67.3196L115.122 67.3431C119.104 67.3669 123.058 67.2985 127.045 67.1771ZM77.1665 58.3333C78.4315 58.4692 81.1318 58.3437 82.6265 58.4153C82.6638 59.9453 83.2594 62.3298 83.5386 63.8821L85.6118 75.1644L87.6929 86.5179C87.8883 87.6112 88.0211 88.6472 88.1343 89.7513C88.1549 89.9516 88.4015 90.2724 88.5298 90.4437C88.5635 91.104 88.589 93.5429 89.3042 93.7239C89.4521 93.3871 89.7109 91.5703 89.8003 91.0696L90.7651 85.9271C90.9343 85.0079 91.197 84.0798 91.3774 83.1614L94.4097 67.7425C95.0003 64.7009 95.4645 61.5773 96.2036 58.5775C96.2767 58.281 100.539 58.2515 100.955 58.5355C100.996 58.7602 100.982 59.1038 100.932 59.3265C100.471 61.3959 100.044 63.483 99.7798 65.5882C99.7666 65.6919 99.515 66.1372 99.4478 66.2591C99.3536 66.8179 99.3433 67.5994 99.2065 68.1302C98.7167 70.0323 98.3948 71.9091 97.9624 73.8148C97.8562 74.2827 97.9544 74.7048 97.8794 75.1458C97.8308 75.4318 97.4657 75.8097 97.4146 76.1448C97.3407 76.6287 97.3855 77.3277 97.2827 77.7845C97.1104 78.5498 96.8663 79.3292 96.687 80.097C96.4793 81.2131 96.1725 82.3639 95.9849 83.4798C95.8255 84.4275 96.0434 84.8803 95.48 85.8353C95.4471 85.8933 95.3219 87.2281 95.2798 87.4612C95.1028 88.4413 94.8569 89.4121 94.6636 90.39C94.5372 91.0379 94.5005 91.669 94.395 92.3167C94.3465 92.6143 94.044 92.8436 94.0122 93.0745C93.9449 93.2916 93.9783 94.5987 93.9097 94.7015C93.3764 95.5007 93.4428 96.2617 93.2827 97.181L92.436 101.826C92.2955 102.606 92.0259 102.499 91.9614 103.532C91.0135 103.59 86.8665 103.615 86.1313 103.449C85.9962 101.241 84.818 96.9292 84.3491 94.6068L79.6255 70.7796L78.0552 63.0657C77.8218 61.9453 77.2186 59.3889 77.1665 58.3333ZM105.651 67.2171C106.106 67.2035 106.72 67.117 107.105 67.2884C107.299 67.4877 107.316 67.5075 107.324 67.8441C107.384 70.5299 107.284 73.2957 107.336 75.9759C107.488 85.1665 107.524 94.3586 107.444 103.55L104.393 103.557L102.317 103.564C102.217 102.103 102.274 99.9559 102.274 98.4525L102.276 89.4222C102.278 82.173 102.143 74.4572 102.301 67.2396C103.411 67.2192 104.539 67.2224 105.651 67.2171ZM56.2368 67.5071C56.4373 67.7785 56.35 72.7282 56.3501 73.429L56.3511 84.6946C56.3517 90.5867 56.487 97.0729 56.3276 102.923L56.061 102.716C55.9951 101.06 56.1156 99.3649 56.0972 97.7034L56.0425 79.928L56.0913 71.8948C56.0895 70.8861 55.9964 68.2801 56.1147 67.4642L56.2368 67.5071ZM107.736 67.6497C107.837 68.1377 107.805 69.5891 107.802 70.1644L107.782 74.639L107.768 91.0716L107.779 98.7415C107.782 99.4765 107.832 102.179 107.696 102.805C107.609 102.149 107.631 100.78 107.63 100.077L107.632 95.5462V80.0257C107.629 77.2476 107.489 74.4296 107.533 71.6419C107.55 70.5527 107.414 68.4792 107.599 67.4925L107.736 67.6497ZM202.715 72.2933C201.889 72.1825 200.738 72.1952 199.895 72.2581C199.549 72.2724 199.49 72.2209 199.23 72.3958C198.916 72.9575 199.028 77.8773 199.028 78.8401L199.027 88.973L199.03 94.7298C199.031 95.4813 198.982 97.8081 199.153 98.4124C199.189 98.5423 199.237 98.6693 199.294 98.7913C201.266 98.8606 202.095 98.8585 203.994 98.18C205.746 96.9308 205.515 93.6741 205.515 91.7816L205.518 86.1243L205.516 79.5941C205.514 77.1968 205.958 72.7285 202.715 72.2933ZM71.0562 72.7308C70.29 72.171 69.1981 72.1578 68.269 72.2318C67.1671 72.3233 66.0002 73.1633 65.7544 74.2855C65.337 76.1908 65.3624 77.9444 65.3608 79.8773L65.3589 85.5218L65.3628 91.22C65.3645 92.6584 65.2495 94.1971 65.6294 95.5784C65.7249 95.9262 65.7012 96.3117 65.687 96.6712C66.5307 98.0344 67.8436 98.9631 69.5269 98.6419C70.3583 98.4918 71.3469 98.1105 71.8022 97.3753C72.6586 95.992 72.4351 93.3351 72.437 91.7034L72.4409 85.4886L72.438 79.2864C72.4363 77.6388 72.4802 75.9407 72.2202 74.306C72.1212 73.684 71.5506 73.092 71.0562 72.7308ZM158.822 78.7327C158.658 79.703 158.661 80.651 158.39 81.6448C157.645 84.3781 157.45 87.2421 156.69 89.9622C156.649 90.1089 156.639 90.6559 156.629 90.8382C157.452 90.828 160.975 90.9886 161.389 90.6448C161.667 89.4692 159.596 80.4338 159.25 78.7347C159.145 78.9091 159.114 79.003 159.044 79.1956C158.958 79.0341 158.896 78.9009 158.822 78.7327ZM85.6323 58.3714C87.6809 58.3504 91.0087 58.2866 92.9888 58.4114C93.0836 59.3026 92.6919 60.012 92.605 60.9593C92.558 61.4709 92.5097 62.6793 92.4155 63.1165C92.074 63.3576 92.081 63.5796 92.0327 63.9622C91.9577 64.5557 92.0279 65.2337 91.9351 65.8187C91.6281 67.7542 91.0371 69.5887 90.9536 71.5599C90.928 72.1637 90.6925 72.8999 90.6382 73.515C90.5829 74.7293 90.3633 75.77 90.0757 76.9427C89.9409 77.4865 90.0611 78.3429 89.8765 78.8265C89.6299 79.3 89.4891 81.4476 89.2319 82.4114L86.8862 67.8636C86.536 65.7565 86.1807 63.7439 85.9722 61.6116C85.8501 60.3629 85.5551 59.749 85.6323 58.3714ZM50.7388 81.5706C50.7008 81.7024 50.66 81.8357 50.6157 81.9691C50.6598 81.8363 50.7009 81.7038 50.7388 81.5726V81.5706ZM159.125 78.2757H159.126L158.983 77.806L159.125 78.2757Z" fill="var(--fill-0, #5059FF)" fill-opacity="0.3"/>
</g>
</svg>
