<svg overflow="visible" style="display: block;" viewBox="0 0 242.333 162.667" fill="none" xmlns="http://www.w3.org/2000/svg">
<g id="Frame 32">
<rect width="242.333" height="162.667" rx="12" fill="var(--fill-0, #5059FF)" fill-opacity="0.12"/>
<path id="Union" d="M166.864 86.8772C175.977 86.2334 181.353 94.1147 180.275 102.656C178.877 102.866 176.91 102.727 175.462 102.784C171.6 102.939 166.787 102.576 163.012 102.885L162.885 103.057C163.046 104.802 165.827 105.845 167.275 106.269C169.255 106.848 171.844 105.449 173.502 104.439C174.923 105.305 176.354 106.155 177.795 106.988C177.989 107.132 179.013 107.601 179.294 107.735C174.404 113.811 165.447 114.767 159.401 109.873C156.815 107.755 155.172 104.7 154.83 101.374C154.034 93.8091 159.382 87.6494 166.864 86.8772ZM95.907 86.5227C104.024 86.423 112.379 86.4573 120.501 86.512L120.488 93.8655L118.038 93.9563C121.52 96.2483 121.683 101.914 120.246 105.439C119.48 107.316 118.433 108.365 117.04 109.78C115.836 110.718 113.983 111.73 112.539 112.234C109.163 113.373 105.474 113.147 102.263 111.602C95.9887 108.555 93.565 102.217 96.5505 95.7063C96.9001 94.944 97.5461 94.7029 97.8611 94.0608C97.4214 93.7975 96.5173 93.8726 95.9265 93.8587C95.894 91.4306 95.9131 88.955 95.907 86.5227ZM77.2165 77.1702C83.852 76.3365 88.7235 79.5436 93.1804 83.9524C91.3481 85.8497 89.0731 86.9271 87.0554 88.8343C86.9479 88.7111 86.84 88.5881 86.7312 88.4661C84.799 86.2883 82.0758 84.9745 79.1687 84.8167C77.8994 84.757 77.0839 84.9772 75.9197 85.3372C70.7897 86.9236 68.1868 91.3156 68.9294 96.6341C69.5582 101.461 73.821 105.09 78.6511 105.145C82.5162 105.189 84.2853 103.839 86.9333 101.329L87.9607 101.997C89.7194 103.331 91.4986 104.638 93.2966 105.918C90.5615 109.077 86.1634 111.92 82.0202 112.657C72.3409 114.38 62.942 107.705 61.2751 98.0608C60.4397 93.3657 61.5218 88.5318 64.279 84.6409C67.5769 79.9889 71.7839 78.0932 77.2165 77.1702ZM125.018 86.4944C133.581 86.4648 142.144 86.4805 150.706 86.5423C150.768 88.9111 150.742 91.4028 150.755 93.7815L132.47 93.9231L132.481 97.6555L148.003 97.6468L150.724 97.6604C150.767 100.17 150.772 102.68 150.739 105.19L132.5 105.247C132.617 107.161 132.47 110.646 132.451 112.679L125.046 112.665C124.862 104.127 125.013 95.0719 125.018 86.4944ZM112.451 95.47C110.941 93.9373 108.723 93.3355 106.645 93.8958C103.493 94.7463 101.609 97.9719 102.417 101.135C103.224 104.298 106.424 106.225 109.597 105.461C111.689 104.957 113.348 103.367 113.939 101.298C114.53 99.2293 113.961 97.0026 112.451 95.47ZM175.921 74.4163C176.492 74.7987 178.216 80.1965 178.453 81.1682C177.79 81.3279 177.259 81.5154 176.623 81.7425C170.86 83.8001 165.02 85.7792 159.147 87.4817C158.006 86.8965 156.989 82.2694 156.605 80.8655C158.203 80.2267 159.894 79.5409 161.529 79.0208C166.366 77.4827 170.991 75.6846 175.921 74.4163ZM107.39 49.3108C111.543 49.2079 115.743 49.3326 119.9 49.2815C121.329 49.2639 122.822 49.2745 124.242 49.4007C126.35 56.5524 128.962 64.1549 131.428 71.2044L134.119 79.1272C134.665 80.7198 135.209 81.9022 135.637 83.5794C132.822 83.6039 130.006 83.6005 127.19 83.5686C126.456 82.0148 125.105 77.6932 124.645 77.0169L124.239 76.9895C120.629 77.0264 117.017 77.031 113.407 77.0022C111.629 76.9954 108.537 77.0597 106.897 76.8469C106.091 79.0903 105.269 81.3295 104.432 83.5618C101.576 83.5865 98.7197 83.5816 95.864 83.5462C96.5725 81.1198 97.52 78.6658 98.32 76.2473L104.482 57.9671C105.527 54.9233 106.495 52.4446 107.39 49.3108ZM150.783 49.0462C150.874 51.2714 150.851 53.6099 150.857 55.846C147.967 55.3428 146.695 56.4948 146.154 59.1653C147.721 59.1787 149.288 59.2031 150.855 59.2385L150.869 65.8294L146.338 65.8391L146.332 83.5423L144.446 83.5628L138.794 83.5559C138.675 77.7497 138.77 71.6641 138.773 65.8372L135.673 65.8362L135.66 59.176L138.733 59.1507C139.023 53.1897 141.569 49.8043 147.575 49.051C148.446 48.9641 149.865 49.0276 150.783 49.0462ZM165.617 49.055C170.17 48.7481 175.03 50.2078 177.834 54.0188C181.847 59.5643 181.051 68.2856 175.41 72.4192C169.388 76.8319 161.637 75.7558 157.198 69.7512C154.697 65.9854 154.719 63.5233 154.921 59.1868C160.867 59.132 166.815 59.1147 172.761 59.135C171.838 57.5168 170.333 56.3108 168.552 55.763C165.934 54.9818 163.996 56.324 161.769 57.5423C159.811 56.3251 158.443 55.1979 156.302 54.2093C158.534 50.7647 161.666 49.4887 165.617 49.055ZM83.655 49.0579C87.345 48.6389 91.3167 50.5275 93.822 53.1438C98.4341 57.9607 98.3477 66.9132 93.3415 71.4387C87.7178 76.5221 79.8903 76.2313 74.7273 70.6594C74.1616 70.0522 73.5338 69.352 73.5593 68.5012L74.0544 68.1438C75.5213 67.3377 78.4871 65.2886 79.7009 64.8811C81.5672 67.1961 83.7427 68.2008 86.7488 66.9925C89.3764 65.7649 90.8642 62.4422 89.4294 59.8157C87.2987 55.9156 84.2349 55.9477 80.6384 57.761L79.6657 59.426C78.8352 58.9618 78.053 58.256 77.2243 57.7415C75.8728 56.9022 74.6532 56.2112 73.3747 55.2415C76.1054 51.4142 78.923 49.5479 83.655 49.0579ZM115.633 49.7571C115.032 51.3378 114.608 53.3688 114.044 55.0716C112.496 59.7428 110.379 65.156 109.108 69.846L115.972 69.843L122.593 69.8098C120.994 65.5127 119.504 61.1753 118.124 56.803C117.747 55.618 116.446 50.3661 115.633 49.7571Z" fill="var(--fill-0, #5059FF)" fill-opacity="0.3"/>
</g>
</svg>
