<svg overflow="visible" style="display: block;" viewBox="0 0 242.333 162.667" fill="none" xmlns="http://www.w3.org/2000/svg">
<g id="Frame 35">
<rect width="242.333" height="162.667" rx="12" fill="var(--fill-0, #5059FF)" fill-opacity="0.12"/>
<path id="Union" d="M56.7593 99.7747C56.6676 101.257 56.7255 103.066 56.7515 104.551C57.2786 104.577 57.9496 104.556 58.4878 104.553C58.8247 104.56 58.9535 104.503 59.1899 104.668C59.2178 104.795 59.2235 104.898 59.2183 105.001C59.213 105.104 59.1966 105.207 59.1812 105.333H55.9312L55.9292 104.785L55.9126 103.524C55.9024 102.261 55.9097 100.999 55.9341 99.7366L56.7593 99.7747ZM65.6362 99.7376C65.8755 99.7518 65.8396 99.7125 65.9868 99.8441C66.1361 100.554 66.1189 103.725 65.7271 104.48C65.5395 104.841 64.7522 105.021 64.3999 105.333H63.0366C62.6199 105.082 62.2429 104.886 61.813 104.664C61.2251 103.131 61.5224 101.564 61.4956 99.9593C61.4927 99.7597 62.0247 99.7657 62.1626 99.7689L62.272 99.8616C62.3609 101.021 61.8861 103.435 62.7104 104.302C63.1084 104.721 64.625 104.597 64.9155 104.082C65.7239 103.182 64.7962 100.305 65.6362 99.7376ZM68.2183 99.6741C69.3307 99.7554 69.4735 99.8123 70.1235 100.742C70.4571 101.111 70.7741 101.502 71.0913 101.885C71.3265 101.371 72.2591 100.091 72.814 99.8519C72.9642 99.7871 73.2972 99.7833 73.4761 99.7825L73.5698 99.8675C73.5578 99.9056 71.813 102.04 71.5317 102.469C72.1696 103.206 73.3091 104.539 73.8257 105.333H72.9438C72.3792 104.697 71.4489 103.745 71.1177 102.997C70.481 103.595 69.6976 104.627 69.0063 105.333H68.2349C68.7152 104.578 69.8789 103.081 70.5376 102.472L69.4849 101.132C69.0889 100.74 68.5901 100.116 68.2183 99.6741ZM80.6753 99.7571C80.5105 100.887 80.5766 102.433 80.5493 103.618C80.3291 104.402 80.1233 104.739 79.3667 105.097C79.2228 105.161 79.0207 105.241 78.9019 105.333H77.563C77.1405 105.062 76.9073 105.052 76.4624 104.649C76.39 104.564 76.2687 104.374 76.2124 104.291C75.7957 103.674 75.8138 100.439 75.9771 99.8235C76.193 99.6997 76.3671 99.7805 76.6646 99.8196C76.8168 101.171 76.6444 102.434 76.8481 103.738C76.8662 103.854 77.0509 104.084 77.1362 104.183C78.3051 104.862 78.3577 104.384 79.0845 104.397C79.4979 104.098 79.6024 103.975 79.686 103.644C79.7139 103.534 79.7401 103.4 79.7739 103.23L79.7427 102.38C79.7251 101.499 79.7425 100.549 79.7534 99.7308L80.6753 99.7571ZM83.2876 99.7269C83.9711 99.784 84.7233 99.5979 85.3872 99.8118C86.6299 100.212 86.963 101.956 85.6714 102.551C86.1104 103.099 87.2724 104.703 87.522 105.333H86.8149C86.3235 104.907 85.6869 103.897 85.2358 103.307C84.9209 102.989 84.6312 102.673 84.228 103.034C83.9969 103.599 84.1113 104.69 84.1138 105.333H83.3267C83.3218 103.67 83.4034 101.307 83.2876 99.7269ZM90.3755 99.7952C90.4746 99.8575 90.6056 99.9177 90.5952 100.049C90.4962 101.309 90.6944 104.219 90.5405 105.333H89.6792C89.7486 104.031 89.6222 100.792 89.7954 99.8548C90.0197 99.7359 90.1001 99.7831 90.3755 99.7952ZM95.3267 105.333C90.5316 102.948 94.3327 98.381 97.606 100.091C98.1876 100.394 98.6224 100.919 98.8091 101.548C99.0502 102.339 98.966 103.209 98.5942 103.951C98.1164 104.906 97.2291 104.905 96.6997 105.333H95.3267ZM106.1 99.7249C106.107 100.935 106.392 103.628 105.625 104.605C105.488 104.78 104.716 105.179 104.458 105.333H103.014C102.614 105.079 102.381 104.934 101.948 104.737C101.275 103.354 101.609 102.483 101.565 101.015C101.553 100.635 101.467 100.3 101.578 99.9251C101.734 99.7529 102.129 99.6959 102.307 99.8265C102.637 101.468 101.354 105.075 104.211 104.485C104.733 104.377 105.187 104.055 105.248 103.49C105.379 102.269 105.298 100.996 105.273 99.7659L106.1 99.7249ZM109.274 102.391C107.412 100.954 109.298 99.1134 111.048 99.9036C111.431 100.076 111.513 100.536 111.301 100.876C110.804 100.519 109.864 100.327 109.352 100.736C109.092 101.29 109.51 101.493 109.919 101.795C110.583 102.186 110.927 102.36 111.45 102.946C111.54 103.425 111.604 103.881 111.526 104.369C111.253 105.023 111.026 104.939 110.561 105.333H109.473C108.491 104.576 108.734 104.985 108.474 103.664C109.274 104.557 110.153 105.097 110.976 103.861C110.514 103.161 109.97 102.841 109.274 102.391ZM118.065 100.17C118.677 99.6067 119.91 99.5969 120.553 100.105C120.649 100.37 120.629 100.456 120.593 100.727C120.005 100.962 119.207 99.862 118.478 100.96C118.472 101.142 118.464 101.295 118.651 101.442C119.869 102.394 121.645 103.076 120.305 104.902C120.201 105.044 119.898 105.188 119.762 105.333H118.674L117.843 104.838C117.759 104.515 117.647 104.193 117.687 103.866C118.085 103.884 118.789 105.1 119.881 104.284C119.946 104.236 119.992 104.14 120.022 104.063C120.061 102.964 117.646 102.506 117.685 101.008C117.693 100.689 117.83 100.386 118.065 100.17ZM126.716 104.163C127.501 103.591 126.207 99.1006 127.757 99.7708C127.893 100.252 127.87 103.982 127.495 104.536C127.174 105.01 126.462 104.946 126.129 105.333H124.775C124.416 105.13 123.8 104.803 123.48 104.578C123.229 104.028 123.054 103.353 123.081 102.746C123.106 102.186 122.92 100.147 123.19 99.762C123.453 99.7163 123.518 99.6945 123.75 99.8128C124.262 100.37 123.333 103.311 124.313 104.11C124.626 104.365 124.776 104.43 125.14 104.6C125.778 104.531 126.135 104.586 126.716 104.163ZM130.679 99.8011C130.975 99.7901 131.052 99.7413 131.291 99.8675C131.411 100.751 131.312 104.26 131.304 105.333H130.501C130.515 104.456 130.333 100.185 130.679 99.8011ZM133.763 99.8109C134.268 99.7304 138.09 99.6083 138.318 99.8587L138.263 100.201L138.208 100.458C137.894 100.629 136.847 100.491 136.445 100.455C136.342 101.974 136.369 103.791 136.356 105.333H135.619C135.61 103.723 135.629 102.059 135.58 100.454C135.141 100.52 134.253 100.519 133.778 100.53C133.753 100.318 133.69 99.9975 133.763 99.8109ZM140.683 99.7816C141.177 99.6617 143.315 99.6633 143.724 99.7943L143.772 100.038L143.771 100.361C143.416 100.673 141.972 100.525 141.444 100.506C141.428 101.049 141.405 101.589 141.423 102.131C141.871 102.172 143.384 102.223 143.657 102.291C143.697 102.513 143.715 102.573 143.667 102.791C143.261 103.017 141.954 102.903 141.423 102.88C141.42 103.387 141.397 104.022 141.445 104.517C142.08 104.538 142.685 104.557 143.321 104.55C143.391 104.548 143.445 104.542 143.488 104.538C143.552 104.533 143.594 104.53 143.637 104.541C143.681 104.553 143.725 104.58 143.795 104.633L143.835 104.875L143.779 105.333H140.578C140.697 103.998 140.648 102.219 140.641 100.866C140.647 100.469 140.473 100.037 140.683 99.7816ZM145.906 101.235C145.773 99.9053 147.702 99.3147 148.626 100.031C148.835 100.192 148.777 100.608 148.803 100.894C148.249 100.814 147.422 100.153 146.822 100.611C146.451 101.192 146.974 101.562 147.366 101.893C148.468 102.496 149.51 103.218 148.775 104.64C148.62 104.939 148.255 105.109 147.993 105.333H146.89C146.106 104.634 145.957 105.299 145.988 103.845C146.22 104.081 146.5 104.293 146.76 104.501C147.29 104.581 148.105 104.682 148.231 104.022C147.976 102.966 146.825 102.662 146.254 102.024L146.239 102.006C146.085 101.898 145.925 101.426 145.906 101.235ZM155.574 99.7874C155.874 99.7427 155.758 99.7311 156.048 99.8372C156.365 100.221 156.2 101.54 156.205 102.192C157.074 102.266 158.433 102.267 159.288 102.17C159.269 101.604 159.132 100.209 159.468 99.8235C159.671 99.758 159.739 99.7714 159.954 99.7894C160.175 100.039 160.06 104.637 160.042 105.333H159.176C159.237 104.357 159.31 103.892 159.266 102.891C158.5 102.901 156.897 102.963 156.198 102.876C156.199 103.677 156.214 104.539 156.171 105.333H155.452C155.408 104.646 155.27 100.148 155.574 99.7874ZM162.717 103.504C161.857 100.772 164.519 98.8899 166.904 100.054C167.575 100.385 168.086 100.971 168.324 101.681C168.544 102.346 168.487 103.072 168.166 103.694C167.456 105.101 166.757 104.802 166.12 105.333H164.843C163.975 104.922 163.027 104.488 162.717 103.504ZM170.094 99.8958C170.506 99.6003 173.925 99.7326 174.607 99.7396C174.577 99.9536 174.535 100.331 174.491 100.529L172.662 100.491C172.669 101.774 172.739 104.132 172.634 105.333H171.853L171.852 100.487C171.354 100.516 170.437 100.648 170.052 100.367C169.963 100.099 169.972 100.201 170.094 99.8958ZM177.389 99.7366C177.989 99.727 179.544 99.5973 180.048 99.7991C180.109 99.9937 180.071 100.082 180.019 100.282L179.943 100.479C179.564 100.594 178.186 100.508 177.755 100.456C177.773 101.06 177.78 101.557 177.753 102.159C178.227 102.194 179.587 102.207 179.905 102.284C179.986 102.485 179.983 102.513 179.937 102.726C179.605 103.106 178.226 102.9 177.72 102.88L177.775 104.587C178.402 104.562 179.547 104.371 179.981 104.701C180.099 104.894 180.027 105.106 179.984 105.333H176.986C176.942 103.606 177.027 101.856 176.952 100.116C176.969 99.8145 177.054 99.7421 177.389 99.7366ZM182.566 99.8734C182.728 99.7721 183.177 99.7571 183.327 99.886C183.402 101.347 183.311 103.072 183.337 104.571C183.805 104.573 185.442 104.492 185.747 104.57C185.832 104.849 185.801 105.045 185.781 105.333H182.535C182.527 104.412 182.441 100.585 182.566 99.8734ZM167.487 102.013C167.206 100.906 166.082 100.236 164.976 100.518C163.872 100.799 163.204 101.922 163.483 103.028C163.763 104.133 164.884 104.803 165.99 104.525C167.097 104.246 167.767 103.12 167.487 102.013ZM98.0396 101.988C97.7436 100.897 96.6224 100.25 95.5308 100.54C94.4314 100.833 93.7797 101.965 94.0776 103.064C94.3756 104.162 95.5096 104.81 96.606 104.506C97.6949 104.205 98.3355 103.079 98.0396 101.988ZM84.1528 102.16C84.6799 102.153 84.8921 102.139 85.3853 101.939C85.5349 101.525 85.6696 101.253 85.481 100.837C85.1231 100.445 84.6683 100.466 84.144 100.41L84.1528 102.16ZM192.753 58.3421C193.197 58.7641 193.676 58.7445 194.348 59.0921C195.068 59.4705 195.76 59.9029 196.415 60.386C201.177 63.9546 203.539 67.6325 204.396 73.5911V77.4827C204.045 79.5417 203.594 81.3421 202.661 83.2396C200.646 87.3362 197.056 90.8568 192.708 92.3568C192.833 90.5432 192.797 88.5411 192.797 86.7151V78.263C192.797 71.7658 192.927 64.805 192.753 58.3421ZM129.625 57.3333C129.739 59.7254 130.272 61.9119 130.741 64.2405L132.111 71.3343L134.895 85.6614C135.277 87.5817 135.521 89.3726 135.985 91.3206C135.128 91.2317 133.298 91.2543 132.373 91.2405C132.24 90.6557 132.119 89.9883 132.027 89.3929C131.236 84.2586 130.069 79.1203 129.457 73.9603C129.141 75.2073 128.845 77.5922 128.599 78.9593C127.856 83.1077 127.239 87.1468 126.392 91.2874C125.213 91.2686 124.034 91.2635 122.855 91.2728C125.124 79.9799 127.288 68.6662 129.348 57.3333H129.625ZM66.5063 59.4788C67.8825 59.4327 69.6801 59.4798 71.0718 59.511C70.5298 60.3872 69.4839 61.4785 68.7925 62.5638C66.6842 65.873 65.9561 70.4087 67.479 74.0862C68.3479 76.1842 69.5041 78.2392 70.0454 80.5023C70.8682 83.9429 70.2229 88.2864 68.3374 91.2982C66.9513 91.3486 65.2449 91.2349 63.7622 91.2532C66.3606 87.8938 67.6914 84.2127 66.1265 80.0433C65.2482 77.7037 63.9147 75.5317 63.3862 73.0218C62.7981 70.2285 63.0198 67.0725 63.8628 64.3519C64.2046 63.2488 65.5314 60.0017 66.5063 59.4788ZM93.0688 59.4935C93.6486 59.5849 95.8041 59.4787 96.7173 59.5462L96.7163 77.0208C96.7161 78.3758 96.5549 86.5306 97.0005 87.3118C97.8472 87.9693 101.356 87.7002 102.57 87.6849C102.589 88.8903 102.588 90.0967 102.566 91.3021C100.149 91.0927 96.7176 91.7202 94.771 89.9827C92.8945 88.3075 93.0982 85.3608 93.103 83.0374L93.1128 78.473C93.1175 72.3235 93.2412 65.5912 93.0688 59.4935ZM157.802 57.679C158.183 58.2356 159.288 59.3155 159.792 59.8235L163.648 63.7161C164.126 64.203 165.104 65.1448 165.507 65.6468C165.617 63.7054 165.523 61.4769 165.57 59.4827C166.709 59.5259 167.893 59.5022 169.036 59.4954C168.912 61.085 168.994 63.9099 168.995 65.5755L168.994 77.1146L168.993 86.6995C168.993 87.6458 168.914 90.2526 168.988 91.0394L168.914 91.1956C168.649 91.3648 166.341 91.2802 165.847 91.264C165.818 91.263 165.792 91.2608 165.77 91.2581C165.725 91.2527 165.692 91.2435 165.666 91.2298C165.626 91.2094 165.6 91.179 165.569 91.136L165.496 91.0325C165.589 90.3867 165.552 89.2488 165.55 88.5696L165.544 84.5609C165.541 80.1178 165.588 75.5798 165.531 71.1458C164.741 70.5622 161.85 67.56 161.384 66.7855C161.437 74.8641 161.471 83.2158 161.385 91.2874C160.291 91.2557 158.851 91.2324 157.754 91.3001L157.736 69.636V62.3021C157.737 60.8601 157.695 59.0929 157.802 57.679ZM37.3335 59.5276C38.3644 59.5163 39.7655 59.4667 40.769 59.5179C40.6765 62.1587 40.7281 65.0633 40.7251 67.72L40.7271 82.3792C40.7306 85.0999 40.8385 88.6734 40.6753 91.2991C39.5656 91.22 38.4464 91.2319 37.3335 91.2376V59.5276ZM196.25 78.2523C196.25 80.7303 196.174 83.6766 196.271 86.1243C196.82 85.3274 197.912 84.2461 198.331 83.4964C198.829 82.7375 199.141 82.2526 199.591 81.3128C202.305 75.6542 200.66 69.057 196.284 64.7425C196.274 64.7364 196.265 64.73 196.255 64.7239L196.25 78.2523Z" fill="var(--fill-0, #5059FF)" fill-opacity="0.3"/>
</g>
</svg>
