<svg overflow="visible" style="display: block;" viewBox="0 0 179.657 20" fill="none" xmlns="http://www.w3.org/2000/svg">
<path id="Union" d="M119.946 10.6826C119.947 9.4907 119.817 0.888911 120.071 0.526367C120.145 0.420964 120.268 0.357775 120.393 0.334961C120.905 0.24114 123.814 0.232483 124.177 0.486328C124.248 0.536267 124.245 0.599491 124.261 0.681641C124.417 1.51101 124.347 2.43192 124.348 3.27441L124.35 7.4873L124.349 15.1484C124.349 16.5538 124.37 18.0061 124.318 19.4141C124.31 19.6474 124.298 19.6635 124.171 19.8486C123.94 19.9982 123.763 19.9865 123.487 20C123.31 19.9896 123.13 19.943 122.999 19.8203C121.8 18.6928 120.61 17.4575 119.448 16.291L112.041 8.83984C112.04 10.0614 112.147 19.0378 111.966 19.4121C111.908 19.5323 111.816 19.6299 111.685 19.6709C111.219 19.8168 108.257 19.7639 107.812 19.5312C107.498 18.6783 107.758 2.8809 107.654 0.81543C107.633 0.386312 107.681 0.320783 107.964 0.0458984H108.903L119.946 10.6826ZM150.38 0.0625C153.094 -0.119702 155.491 0.565762 157.576 2.33594C157.827 2.54907 158.015 2.73636 158.034 3.05469C157.843 3.49529 155.674 5.89563 155.445 5.77734C154.013 5.02526 153.164 4.27345 151.432 4.23145C150.029 4.2005 148.67 4.72552 147.653 5.69238C143.269 9.88788 147.58 17.4664 153.489 15.1387C155.506 14.3441 154.876 13.2472 156.733 15.2627C158.214 16.7836 158.624 17.0336 156.55 18.3896C155.222 19.2583 153.897 19.7436 152.316 19.9199C149.652 20.2283 146.973 19.4651 144.873 17.7979C142.816 16.1524 141.503 13.7535 141.225 11.1348C140.93 8.47724 141.709 5.81148 143.388 3.73047C145.16 1.53605 147.53 0.372282 150.305 0.0742188C150.333 0.0686499 150.351 0.0644878 150.38 0.0625ZM24.2764 0.331055C24.9042 0.277458 27.8682 0.220985 28.2832 0.496094C28.6803 1.16658 28.2825 10.7012 28.4834 12.4502C28.5924 13.3994 28.973 14.2091 29.7344 14.8105C30.4508 15.3744 31.3628 15.6284 32.2676 15.5156C33.4612 15.3699 34.6234 14.5585 35.0234 13.4248C35.4532 12.2064 35.3046 10.3483 35.3037 9.04004L35.2881 2.48926C35.2869 2.02068 35.2216 0.86504 35.4814 0.483398C35.5491 0.384263 35.8982 0.318414 36.0391 0.31543C37.0989 0.293373 38.1879 0.317679 39.25 0.325195C39.3839 0.326152 39.544 0.42262 39.6416 0.50293C39.8847 0.798805 39.7812 4.37478 39.7793 4.99316L39.7861 9.74512C39.7889 12.8178 39.952 15.1529 37.5947 17.5752C36.1036 19.0974 34.0674 19.9629 31.9365 19.9805C29.8259 20.0091 27.7907 19.1963 26.2803 17.7217C24.7988 16.2711 23.9771 14.3024 23.9834 12.2305C23.9903 8.86357 24.0065 5.49671 23.9717 2.12988C23.9656 1.54982 23.864 0.751499 24.2764 0.331055ZM9.53613 0C10.6681 1.36711 12.1426 3.14743 13.332 4.45117C13.1657 5.0602 12.0396 8.27662 12.7041 8.56152C13.1729 8.45066 14.5035 6.72316 14.9033 6.25977L19.0645 11.0898C18.2669 11.6279 14.5888 13.9555 14.373 14.54C14.3451 15.0255 14.6282 15.8547 14.7744 16.3574C13.1636 16.0656 11.5592 15.7381 9.96289 15.375C10.0997 16.822 10.108 18.5013 10.1865 19.9766H8.86133C8.9569 18.5963 9.04875 16.761 9.06055 15.3828C7.48183 15.7209 5.87665 16.0825 4.28809 16.3584C4.42573 15.8636 4.78778 14.8339 4.62207 14.3906C4.34623 14.0216 0.475944 11.3402 0 11.1123V11.0596C1.39116 9.46322 2.77345 7.85921 4.14746 6.24805C4.54446 6.72281 5.81817 8.37545 6.31348 8.55469C6.37358 8.54661 6.46787 8.54972 6.49902 8.50684C6.74601 8.16459 6.53 7.41417 6.43262 7.05566C6.19778 6.19113 5.95334 5.33756 5.70996 4.48047C6.90445 3.06347 8.29825 1.37066 9.53613 0ZM93.7295 0.0458984C93.9778 0.0365321 94.3285 -0.00966489 94.5312 0.166992C94.7888 0.391763 102.404 16.7582 103.129 18.4902C103.252 18.7844 103.367 19.0936 103.383 19.415C103.289 19.5308 103.162 19.642 103.004 19.6504C98.9182 19.866 99.3649 20.1511 97.8301 16.8301H90.3184C90.0383 17.4533 89.2951 19.7326 88.4775 19.6982C87.7629 19.6683 85.1492 19.9167 84.7412 19.4375C84.7931 19.1275 84.9472 18.6594 85.0791 18.373C86.5374 15.2066 88.0191 12.033 89.4893 8.87305L92.0488 3.37305C92.2987 2.83632 93.3751 0.350018 93.7295 0.0458984ZM46.9209 0.330078C49.3824 0.162344 52.1496 0.422471 54.6377 0.30957C55.5688 0.267309 56.7219 0.371142 57.5986 0.707031C59.1058 1.2717 60.3253 2.41438 60.9863 3.88184C61.6134 5.27966 61.6615 6.86954 61.1201 8.30273C60.4343 10.0659 59.0898 11.1328 57.4062 11.873C58.5207 13.9345 60.2179 16.9231 61.2295 19.1162C61.2842 19.2349 61.1674 19.4351 61.0869 19.5479C60.7566 19.8249 58.029 19.7125 57.3887 19.708C56.9841 19.7248 56.747 19.7432 56.5312 19.3467C56.1023 18.5582 55.7165 17.7446 55.3145 16.9414L52.8965 12.1172H51.0078C51.0084 13.0845 51.1286 19.0941 50.8926 19.4629C50.8153 19.5828 50.6275 19.6667 50.4922 19.6934C49.9815 19.7942 47.1213 19.7738 46.7637 19.5312C46.7368 19.4269 46.7172 19.3208 46.7051 19.2139C46.615 18.445 46.6548 16.9013 46.6543 16.083V10.4561L46.6562 3.97852C46.6562 2.93584 46.6487 1.86732 46.6602 0.822266C46.6626 0.595384 46.7809 0.505702 46.9209 0.330078ZM169.971 0.110352C170.082 0.0226313 170.438 0.0528318 170.58 0.0898438C170.792 0.14373 170.976 0.403295 171.066 0.595703C171.76 2.07128 172.438 3.5768 173.127 5.05371L177.31 14.04C178.039 15.6095 178.87 17.5233 179.657 19.0391V19.4424C179.369 19.7246 179.155 19.7208 178.776 19.7236C174.989 19.7517 175.531 20.0646 174.084 16.8301H166.569C166.294 17.4169 165.688 19.1191 165.201 19.4639C164.539 19.9327 162.688 19.6144 161.852 19.7266C161.518 19.7711 161.217 19.645 161.021 19.3604C160.986 18.935 161.753 17.435 161.971 16.9668L163.762 13.1201L167.382 5.34961C168.06 3.88311 168.734 2.4097 169.421 0.946289C169.527 0.721507 169.774 0.26492 169.971 0.110352ZM70.9082 0.310547C72.7665 0.379586 74.5451 0.126921 76.3809 0.52832C79.2743 1.16125 81.5628 4.11589 80.2998 7.05273C79.7749 8.27307 78.6011 9.17329 77.4727 9.83984C80.3956 11.1538 81.9556 13.1861 80.7324 16.3955C78.9548 20.0723 75.2908 19.7558 71.8262 19.7168C70.9566 19.7071 68.3732 19.8772 67.8086 19.4414C67.6447 19.078 67.7072 15.367 67.707 14.7676L67.709 6.9375V2.71094C67.7081 2.08463 67.7027 1.40277 67.7197 0.772461C67.7238 0.620875 67.8888 0.447469 67.9941 0.333008C68.557 0.2817 70.2995 0.2968 70.9082 0.310547ZM131.514 0.331055C132.132 0.27814 135.084 0.203464 135.489 0.522461C135.713 1.43483 135.6 4.2595 135.6 5.29785V12.8252L135.599 17.2002C135.599 17.8736 135.603 18.5936 135.59 19.2705C135.587 19.4005 135.403 19.5913 135.31 19.6934C134.683 19.7433 131.739 19.8192 131.326 19.5039C131.113 18.5592 131.22 16.1883 131.22 15.1553V8.25781L131.222 3.19727C131.222 2.40902 131.215 1.58367 131.228 0.792969C131.231 0.602429 131.384 0.479949 131.514 0.331055ZM75.6992 12.2471C74.8227 11.6124 73.1025 11.7907 72.0625 11.8018V15.7305C73.4729 15.7438 74.9892 16.0082 76.0215 15.0918C76.7317 14.0925 76.7442 13.0046 75.6992 12.2471ZM94.0557 8.51074C93.3749 10.0065 92.6562 11.538 92 13.041H96.1562L94.7891 10.0518C94.6304 9.70529 94.243 8.814 94.0557 8.51074ZM168.238 13.041H172.394C172.148 12.4961 170.461 8.67561 170.288 8.51855L168.238 13.041ZM56.4277 4.78125C55.2083 3.9754 52.5264 4.29935 51.0078 4.29297V8.5957C52.0042 8.60019 53.006 8.60642 54.002 8.61133C55.0723 8.61661 55.7041 8.6779 56.5557 7.94141C57.2741 7.01151 57.5269 5.50785 56.4277 4.78125ZM74.7314 4.39941C74.0466 4.20926 72.8113 4.33252 72.0625 4.32715V8.1748C73.2646 8.18901 74.6589 8.40544 75.5635 7.60449C76.4337 6.44821 76.3257 4.84233 74.7314 4.39941Z" fill="var(--fill-0, #5059FF)" fill-opacity="0.3"/>
</svg>
