<svg overflow="visible" style="display: block;" viewBox="0 0 34.0004 34.0004" fill="none" xmlns="http://www.w3.org/2000/svg">
<g id="Vector">
<path d="M16.4813 23.5468L9.12733 27.655C6.49369 29.1262 3.16603 28.1839 1.69479 25.5503C0.223554 22.9166 1.16587 19.5889 3.79951 18.1177L11.1896 13.9894L9.56833 14.8967L9.28642 14.3921L6.34537 9.12733C4.87414 6.49369 5.81645 3.16603 8.45009 1.69479C11.0837 0.223554 14.4114 1.16587 15.8826 3.79951L18.875 9.156L19.1141 9.58418L17.4308 10.5028L24.873 6.34537C27.5067 4.87414 30.8343 5.81645 32.3056 8.45009C33.7768 11.0837 32.8345 14.4114 30.2008 15.8826L22.7947 20.02L24.4619 19.1571L24.8207 19.7994L27.655 24.873C29.1262 27.5067 28.1839 30.8343 25.5503 32.3056C22.9166 33.7768 19.5889 32.8345 18.1177 30.2008L15.2065 24.9896L14.9075 24.4543" fill="var(--fill-0, #F7414B)"/>
<path d="M16.4813 23.5468L9.12733 27.655C6.49369 29.1262 3.16603 28.1839 1.69479 25.5503C0.223554 22.9166 1.16587 19.5889 3.79951 18.1177L11.1896 13.9894L9.56833 14.8967L9.28642 14.3921L6.34537 9.12733C4.87414 6.49369 5.81645 3.16603 8.45009 1.69479C11.0837 0.223554 14.4114 1.16587 15.8826 3.79951L18.875 9.156L19.1141 9.58418L17.4308 10.5028L24.873 6.34537C27.5067 4.87414 30.8343 5.81645 32.3056 8.45009C33.7768 11.0837 32.8345 14.4114 30.2008 15.8826L22.7947 20.02L24.4619 19.1571L24.8207 19.7994L27.655 24.873C29.1262 27.5067 28.1839 30.8343 25.5503 32.3056C22.9166 33.7768 19.5889 32.8345 18.1177 30.2008L15.2065 24.9896L14.9075 24.4543" stroke="var(--stroke-0, #3A3534)" stroke-width="2" stroke-linecap="round" stroke-linejoin="round"/>
</g>
</svg>
