<svg overflow="visible" style="display: block;" viewBox="0 0 83.6776 10.7779" fill="none" xmlns="http://www.w3.org/2000/svg">
<g id="giftcard">
<path id="Vector" d="M0 5.41885V5.38905C0 2.53063 2.09903 0 5.22515 0C6.80319 0 7.83045 0.416861 8.7832 1.11648C8.91713 1.22078 9.02126 1.38434 9.02126 1.59294C9.02126 1.9204 8.7534 2.18827 8.44067 2.18827C8.30674 2.18827 8.1877 2.12883 8.06851 2.03944C7.32419 1.47374 6.49063 1.08668 5.18045 1.08668C2.87315 1.08668 1.22062 3.03689 1.22062 5.35925V5.38905C1.22062 7.87498 2.81356 9.72105 5.34435 9.72105C6.53517 9.72105 7.63692 9.25949 8.35144 8.6789V6.08867H5.55278C5.26985 6.08867 5.03162 5.85044 5.03162 5.56768C5.03162 5.26985 5.26985 5.03179 5.55278 5.03179H8.90223C9.21479 5.03179 9.48282 5.29965 9.48282 5.62711V8.79809C9.48282 9.08086 9.34889 9.33399 9.08086 9.51262C8.12811 10.2122 6.84789 10.7779 5.29965 10.7779C2.02454 10.7779 0 8.39613 0 5.41885Z" fill="var(--fill-0, white)"/>
<path id="Vector_2" d="M13.0854 0.699619C13.0854 0.372158 13.3532 0.104127 13.666 0.104127C13.9934 0.104127 14.2615 0.372155 14.2615 0.699619V10.0783C14.2615 10.4058 13.9934 10.6738 13.666 10.6738C13.3532 10.6738 13.0854 10.4058 13.0854 10.0783V0.699619Z" fill="var(--fill-0, white)"/>
<path id="Vector_3" d="M18.1615 0.774113C18.1615 0.446653 18.4296 0.178622 18.7421 0.178622H25.1881C25.4859 0.178622 25.7241 0.41685 25.7241 0.714515C25.7241 1.01218 25.4859 1.26531 25.1881 1.26531H19.3376V4.98708H24.5182C24.8159 4.98708 25.0541 5.22515 25.0541 5.52298C25.0541 5.82064 24.8159 6.05887 24.5182 6.05887H19.3376V10.0783C19.3376 10.4058 19.0696 10.6738 18.7421 10.6738C18.4296 10.6738 18.1615 10.4058 18.1615 10.0783V0.774113Z" fill="var(--fill-0, white)"/>
<path id="Vector_4" d="M31.5299 1.26531H28.5079C28.2101 1.26531 27.9571 1.02708 27.9571 0.729414C27.9571 0.431749 28.2101 0.178622 28.5079 0.178622H35.7428C36.0405 0.178622 36.2936 0.431749 36.2936 0.729414C36.2936 1.02708 36.0405 1.26531 35.7428 1.26531H32.7209V10.0783C32.7209 10.4058 32.4528 10.6738 32.1254 10.6738C31.7977 10.6738 31.5299 10.4058 31.5299 10.0783V1.26531Z" fill="var(--fill-0, white)"/>
<path id="Vector_5" d="M38.0948 5.41885V5.38905C38.0948 2.44139 40.298 1.64294e-07 43.3647 1.64294e-07C45.0469 1.64294e-07 46.1188 0.550793 47.0863 1.35471C47.2055 1.45885 47.3245 1.62257 47.3245 1.831C47.3245 2.14356 47.0418 2.4116 46.729 2.4116C46.5653 2.4116 46.4314 2.33726 46.342 2.27766C45.5382 1.56314 44.63 1.08668 43.3498 1.08668C41.0423 1.08668 39.3155 2.96239 39.3155 5.35925V5.38905C39.3155 7.80064 41.0572 9.69125 43.3498 9.69125C44.6449 9.69125 45.5531 9.24459 46.4463 8.42593C46.5355 8.33654 46.6696 8.26204 46.8184 8.26204C47.1161 8.26204 47.3841 8.53006 47.3841 8.82789C47.3841 9.00636 47.2947 9.15536 47.1906 9.24459C46.1633 10.1824 45.032 10.7779 43.32 10.7779C40.3129 10.7779 38.0948 8.41103 38.0948 5.41885Z" fill="var(--fill-0, white)"/>
<path id="Vector_6" d="M49.751 9.82517L53.9787 0.580581C54.1277 0.252952 54.3509 0.0595887 54.7232 0.0595887H54.7826C55.1399 0.0595887 55.3781 0.252952 55.5121 0.580581L59.7399 9.81027C59.7846 9.91457 59.8144 10.0187 59.8144 10.1081C59.8144 10.4207 59.5613 10.6738 59.2487 10.6738C58.9658 10.6738 58.7723 10.4803 58.6681 10.242L57.5815 7.84533H51.8649L50.7781 10.2718C50.674 10.525 50.4804 10.6738 50.2124 10.6738C49.9147 10.6738 49.6765 10.4356 49.6765 10.1379C49.6765 10.0485 49.6914 9.94437 49.751 9.82517ZM57.1199 6.77339L54.7232 1.44394L52.3263 6.77339H57.1199Z" fill="var(--fill-0, white)"/>
<path id="Vector_7" d="M62.9108 0.774113C62.9108 0.446653 63.1788 0.178622 63.4914 0.178622H67.3918C68.672 0.178622 69.6992 0.565683 70.3541 1.22077C70.8604 1.72687 71.1581 2.45629 71.1581 3.27511V3.30475C71.1581 5.01689 69.9969 6.01417 68.3743 6.32689L70.9645 9.66144C71.0836 9.79537 71.1581 9.92947 71.1581 10.0932C71.1581 10.4058 70.8604 10.6738 70.5626 10.6738C70.3243 10.6738 70.1457 10.5397 70.0118 10.3612L67.079 6.55023H64.0868V10.0783C64.0868 10.4058 63.819 10.6738 63.4913 10.6738C63.1788 10.6738 62.9107 10.4058 62.9107 10.0783L62.9108 0.774113ZM67.2875 5.49317C68.8506 5.49317 69.9671 4.68925 69.9671 3.34944V3.31964C69.9671 2.03942 68.9845 1.2653 67.3024 1.2653H64.0868V5.49317H67.2875Z" fill="var(--fill-0, white)"/>
<path id="Vector_8" d="M74.5222 0.774113C74.5222 0.446653 74.7903 0.178622 75.1028 0.178622H78.1397C81.4148 0.178622 83.6776 2.42649 83.6776 5.35924V5.38904C83.6776 8.32163 81.4148 10.5993 78.1397 10.5993H75.1028C74.7903 10.5993 74.5222 10.3314 74.5222 10.004V0.774113ZM78.1397 9.51261C80.7746 9.51261 82.457 7.72614 82.457 5.41884V5.38905C82.457 3.08158 80.7746 1.26531 78.1397 1.26531H75.6983V9.51261H78.1397Z" fill="var(--fill-0, white)"/>
</g>
</svg>
