<svg overflow="visible" style="display: block;" viewBox="0 0 133.154 32.092" fill="none" xmlns="http://www.w3.org/2000/svg">
<g id="XTRA red">
<g id="Vector">
<path d="M17.3459 23.0559L10.8411 29.5606C8.51155 31.8902 4.73464 31.8902 2.40512 29.5606C0.0755932 27.2311 0.0755833 23.4542 2.40511 21.1247L8.9418 14.588L7.50827 16.0237L7.0619 15.5774L2.4051 10.9206C0.07558 8.59105 0.07558 4.81414 2.4051 2.48461C4.73463 0.155089 8.51155 0.155079 10.8411 2.4846L15.579 7.22256L15.9578 7.60129L14.4623 9.06745L21.0452 2.48461C23.3747 0.155086 27.1516 0.155086 29.4811 2.48461C31.8107 4.81413 31.8107 8.59105 29.4811 10.9206L22.9302 17.4715L24.4253 16.0688L24.9934 16.6369L29.4811 21.1247C31.8107 23.4542 31.8107 27.2311 29.4811 29.5606C27.1516 31.8902 23.3747 31.8902 21.0452 29.5606L16.4357 24.9511L15.9623 24.4777" fill="var(--fill-0, white)"/>
<path d="M17.3459 23.0559L10.8411 29.5606C8.51155 31.8902 4.73464 31.8902 2.40512 29.5606C0.0755932 27.2311 0.0755833 23.4542 2.40511 21.1247L8.9418 14.588L7.50827 16.0237L7.0619 15.5774L2.4051 10.9206C0.07558 8.59105 0.07558 4.81414 2.4051 2.48461C4.73463 0.155089 8.51155 0.155079 10.8411 2.4846L15.579 7.22256L15.9578 7.60129L14.4623 9.06745L21.0452 2.48461C23.3747 0.155086 27.1516 0.155086 29.4811 2.48461C31.8107 4.81413 31.8107 8.59105 29.4811 10.9206L22.9302 17.4715L24.4253 16.0688L24.9934 16.6369L29.4811 21.1247C31.8107 23.4542 31.8107 27.2311 29.4811 29.5606C27.1516 31.8902 23.3747 31.8902 21.0452 29.5606L16.4357 24.9511L15.9623 24.4777" stroke="var(--stroke-0, #3A3534)" stroke-width="1.31592" stroke-linecap="round" stroke-linejoin="round"/>
</g>
<g id="Vector_2">
<path d="M46.4053 12.6948H40.0861C36.9779 12.6948 34.4582 10.0109 34.4582 6.70015C34.4582 3.38941 36.9779 0.705521 40.0861 0.705521H59.9863C63.0945 0.705521 65.6142 3.3894 65.6142 6.70014C65.6142 10.0109 63.0945 12.6948 59.9863 12.6948H54.7514L55.9968 12.715L56.0308 25.2545C56.0308 28.5652 53.347 31.2491 50.0362 31.2491C46.7255 31.2491 44.0416 28.5652 44.0416 25.2545V12.7289" fill="var(--fill-0, white)"/>
<path d="M46.4053 12.6948H40.0861C36.9779 12.6948 34.4582 10.0109 34.4582 6.70015C34.4582 3.38941 36.9779 0.705521 40.0861 0.705521H59.9863C63.0945 0.705521 65.6142 3.3894 65.6142 6.70014C65.6142 10.0109 63.0945 12.6948 59.9863 12.6948H54.7514L55.9968 12.715L56.0308 25.2545C56.0308 28.5652 53.347 31.2491 50.0362 31.2491C46.7255 31.2491 44.0416 28.5652 44.0416 25.2545V12.7289" stroke="var(--stroke-0, #3A3534)" stroke-width="1.31592" stroke-linecap="round" stroke-linejoin="round"/>
</g>
<g id="Vector_3">
<path d="M75.1549 17.1894H85.3761C89.9792 17.1894 93.8646 13.6118 93.8646 9.00871C93.8646 4.40566 90.1331 0.674142 85.53 0.674142H76.8027C75.6969 0.667187 74.621 0.624225 73.5602 0.988022C72.6801 1.28985 71.8755 1.79968 71.2244 2.46401C70.5726 3.12902 70.0787 3.94466 69.795 4.83175C69.6063 5.42175 69.5111 6.0405 69.5111 6.65985L69.4734 25.2959C69.4734 28.6066 72.1572 31.2905 75.468 31.2905C78.7787 31.2905 81.4626 28.6066 81.4626 25.2959L81.5004 17.3L81.4872 22.4935L86.6279 29.0185C88.6667 31.6271 92.4341 32.089 95.0426 30.0502C97.6511 28.0115 98.1131 24.2441 96.0743 21.6355L91.3927 15.7864" fill="var(--fill-0, white)"/>
<path d="M75.1549 17.1894H85.3761C89.9792 17.1894 93.8646 13.6118 93.8646 9.00871C93.8646 4.40566 90.1331 0.674142 85.53 0.674142H76.8027C75.6969 0.667187 74.621 0.624225 73.5602 0.988022C72.6801 1.28985 71.8755 1.79968 71.2244 2.46401C70.5726 3.12902 70.0787 3.94466 69.795 4.83175C69.6063 5.42175 69.5111 6.0405 69.5111 6.65985L69.4734 25.2959C69.4734 28.6066 72.1572 31.2905 75.468 31.2905C78.7787 31.2905 81.4626 28.6066 81.4626 25.2959L81.5004 17.3L81.4872 22.4935L86.6279 29.0185C88.6667 31.6271 92.4341 32.089 95.0426 30.0502C97.6511 28.0115 98.1131 24.2441 96.0743 21.6355L91.3927 15.7864" stroke="var(--stroke-0, #3A3534)" stroke-width="1.31592" stroke-linecap="round" stroke-linejoin="round"/>
</g>
<g id="Vector_4">
<path d="M117.446 1.0416C116.606 0.678488 115.692 0.598076 114.827 0.6968C112.784 0.929928 110.879 2.3399 110.102 4.40334L101.519 23.6554C100.413 26.5927 101.897 29.8705 104.834 30.9766C107.772 32.0828 110.748 30.5161 112.156 27.6611L118.244 15.0352L116.346 18.9275L121.691 28.1029C123.194 31.0411 126.677 32.2646 129.471 30.8357C132.266 29.4068 133.314 25.8667 131.811 22.9286L120.778 4.05729C119.373 1.18881 115.932 -0.144035 113.043 1.21711" fill="var(--fill-0, white)"/>
<path d="M117.446 1.0416C116.606 0.678488 115.692 0.598076 114.827 0.6968C112.784 0.929928 110.879 2.3399 110.102 4.40334L101.519 23.6554C100.413 26.5927 101.897 29.8705 104.834 30.9766C107.772 32.0828 110.748 30.5161 112.156 27.6611L118.244 15.0352L116.346 18.9275L121.691 28.1029C123.194 31.0411 126.677 32.2646 129.471 30.8357C132.266 29.4068 133.314 25.8667 131.811 22.9286L120.778 4.05729C119.373 1.18881 115.932 -0.144035 113.043 1.21711" stroke="var(--stroke-0, #3A3534)" stroke-width="1.31592" stroke-linecap="round" stroke-linejoin="round"/>
</g>
</g>
</svg>
