<svg overflow="visible" style="display: block;" viewBox="0 0 23.3612 23.3612" fill="none" xmlns="http://www.w3.org/2000/svg">
<path id="Vector" d="M16.6961 14.6926H15.6409L15.267 14.332C16.5759 12.8093 17.364 10.8325 17.364 8.68199C17.364 3.88686 13.4771 0 8.68199 0C3.88686 0 0 3.88686 0 8.68199C0 13.4771 3.88686 17.364 8.68199 17.364C10.8325 17.364 12.8093 16.5759 14.332 15.267L14.6926 15.6409V16.6961L21.3711 23.3612L23.3612 21.3711L16.6961 14.6926ZM8.68199 14.6926C5.35612 14.6926 2.67138 12.0079 2.67138 8.68199C2.67138 5.35612 5.35612 2.67138 8.68199 2.67138C12.0079 2.67138 14.6926 5.35612 14.6926 8.68199C14.6926 12.0079 12.0079 14.6926 8.68199 14.6926Z" fill="var(--fill-0, white)"/>
</svg>
