<svg overflow="visible" style="display: block;" viewBox="0 0 19.0813 19.0813" fill="none" xmlns="http://www.w3.org/2000/svg">
<path id="Vector" d="M9.54065 0C4.27421 0 0 4.27421 0 9.54065C0 14.8071 4.27421 19.0813 9.54065 19.0813C14.8071 19.0813 19.0813 14.8071 19.0813 9.54065C19.0813 4.27421 14.8071 0 9.54065 0ZM4.83711 15.5322C5.24736 14.6735 7.74701 13.8339 9.54065 13.8339C11.3343 13.8339 13.8435 14.6735 14.2442 15.5322C12.9467 16.5626 11.3152 17.1732 9.54065 17.1732C7.76609 17.1732 6.13464 16.5626 4.83711 15.5322ZM15.6085 14.1488C14.2442 12.4887 10.9336 11.9258 9.54065 11.9258C8.14772 11.9258 4.83711 12.4887 3.4728 14.1488C2.49965 12.8703 1.90813 11.2771 1.90813 9.54065C1.90813 5.33322 5.33322 1.90813 9.54065 1.90813C13.7481 1.90813 17.1732 5.33322 17.1732 9.54065C17.1732 11.2771 16.5817 12.8703 15.6085 14.1488V14.1488ZM9.54065 3.81626C7.68977 3.81626 6.20142 5.3046 6.20142 7.15549C6.20142 9.00638 7.68977 10.4947 9.54065 10.4947C11.3915 10.4947 12.8799 9.00638 12.8799 7.15549C12.8799 5.3046 11.3915 3.81626 9.54065 3.81626ZM9.54065 8.58659C8.74878 8.58659 8.10955 7.94736 8.10955 7.15549C8.10955 6.36361 8.74878 5.72439 9.54065 5.72439C10.3325 5.72439 10.9717 6.36361 10.9717 7.15549C10.9717 7.94736 10.3325 8.58659 9.54065 8.58659Z" fill="var(--fill-0, #212529)" fill-opacity="0.6"/>
</svg>
