<svg overflow="visible" style="display: block;" viewBox="0 0 361.782 2.28976" fill="none" xmlns="http://www.w3.org/2000/svg">
<path id="Line 2 (Stroke)" d="M4.81613 0C5.49091 0.000265822 6.03837 0.512743 6.03837 1.14488C6.03837 1.77701 5.49091 2.28949 4.81613 2.28976H1.22223C0.547213 2.28976 0 1.77718 0 1.14488C0 0.512579 0.547213 0 1.22223 0H4.81613ZM19.1893 0C19.8642 0.000120695 20.4116 0.512654 20.4116 1.14488C20.4116 1.7771 19.8642 2.28964 19.1893 2.28976H12.0027C11.3277 2.28976 10.7805 1.77718 10.7805 1.14488C10.7805 0.512579 11.3277 0 12.0027 0H19.1893ZM33.5625 0C34.2375 0 34.7848 0.512579 34.7848 1.14488C34.7848 1.77718 34.2375 2.28976 33.5625 2.28976H26.3759C25.7009 2.28976 25.1537 1.77718 25.1537 1.14488C25.1537 0.512579 25.7009 0 26.3759 0H33.5625ZM47.9357 0C48.6107 0 49.158 0.512579 49.158 1.14488C49.158 1.77718 48.6107 2.28976 47.9357 2.28976H40.7491C40.0742 2.28966 39.5269 1.77712 39.5269 1.14488C39.5269 0.512639 40.0742 9.65585e-05 40.7491 0H47.9357ZM62.3101 0C62.9849 0.000286902 63.5323 0.512757 63.5323 1.14488C63.5323 1.777 62.9849 2.28947 62.3101 2.28976H55.1223C54.4475 2.28951 53.9001 1.77703 53.9001 1.14488C53.9001 0.512729 54.4475 0.00024271 55.1223 0H62.3101ZM76.6833 0C77.3582 0.000140765 77.9055 0.512666 77.9055 1.14488C77.9055 1.77709 77.3582 2.28962 76.6833 2.28976H69.4967C68.8217 2.28976 68.2745 1.77718 68.2745 1.14488C68.2745 0.512579 68.8217 0 69.4967 0H76.6833ZM91.0565 0C91.7315 0 92.2787 0.512579 92.2787 1.14488C92.2787 1.77718 91.7315 2.28976 91.0565 2.28976H83.8699C83.1949 2.28976 82.6477 1.77718 82.6477 1.14488C82.6477 0.512579 83.1949 0 83.8699 0H91.0565ZM105.43 0C106.105 0 106.652 0.512579 106.652 1.14488C106.652 1.77718 106.105 2.28976 105.43 2.28976H98.2431C97.5681 2.28969 97.0209 1.77713 97.0209 1.14488C97.0209 0.512622 97.5681 6.90332e-05 98.2431 0H105.43ZM119.803 0C120.478 0 121.025 0.512579 121.025 1.14488C121.025 1.77718 120.478 2.28976 119.803 2.28976H112.616C111.941 2.28954 111.394 1.77705 111.394 1.14488C111.394 0.512711 111.941 0.000212485 112.616 0H119.803ZM134.177 0C134.852 0.000179124 135.4 0.51269 135.4 1.14488C135.4 1.77707 134.852 2.28958 134.177 2.28976H126.991C126.316 2.28976 125.768 1.77718 125.768 1.14488C125.768 0.512579 126.316 0 126.991 0H134.177ZM148.55 0C149.225 3.56612e-05 149.773 0.512601 149.773 1.14488C149.773 1.77716 149.225 2.28972 148.55 2.28976H141.364C140.689 2.28976 140.142 1.77718 140.142 1.14488C140.142 0.512579 140.689 0 141.364 0H148.55ZM162.924 0C163.599 0 164.146 0.512579 164.146 1.14488C164.146 1.77718 163.599 2.28976 162.924 2.28976H155.737C155.062 2.28972 154.515 1.77716 154.515 1.14488C154.515 0.5126 155.062 3.33748e-05 155.737 0H162.924ZM177.297 0C177.972 0 178.519 0.512579 178.519 1.14488C178.519 1.77718 177.972 2.28976 177.297 2.28976H170.11C169.435 2.28958 168.888 1.77707 168.888 1.14488C168.888 0.512689 169.435 0.000176838 170.11 0H177.297ZM191.671 0C192.346 0.000198514 192.894 0.512702 192.894 1.14488C192.894 1.77705 192.346 2.28956 191.671 2.28976H184.485C183.81 2.28976 183.262 1.77718 183.262 1.14488C183.262 0.512579 183.81 0 184.485 0H191.671ZM206.044 0C206.719 4.96372e-05 207.267 0.51261 207.267 1.14488C207.267 1.77715 206.719 2.28971 206.044 2.28976H198.858C198.183 2.28976 197.636 1.77718 197.636 1.14488C197.636 0.512579 198.183 0 198.858 0H206.044ZM220.418 0C221.093 0 221.64 0.512579 221.64 1.14488C221.64 1.77718 221.093 2.28976 220.418 2.28976H213.231C212.556 2.28973 212.009 1.77716 212.009 1.14488C212.009 0.512598 212.556 3.02403e-05 213.231 0H220.418ZM234.791 0C235.466 0 236.013 0.512579 236.013 1.14488C236.013 1.77718 235.466 2.28976 234.791 2.28976H227.604C226.929 2.28958 226.382 1.77707 226.382 1.14488C226.382 0.51269 226.929 0.000179124 227.604 0H234.791ZM249.165 0C249.84 0.000196229 250.387 0.512701 250.387 1.14488C250.387 1.77706 249.84 2.28956 249.165 2.28976H241.979C241.304 2.28976 240.756 1.77718 240.756 1.14488C240.756 0.512579 241.304 0 241.979 0H249.165ZM263.538 0C264.213 4.73509e-05 264.761 0.512609 264.761 1.14488C264.761 1.77715 264.213 2.28971 263.538 2.28976H256.352C255.677 2.28976 255.13 1.77718 255.13 1.14488C255.13 0.512579 255.677 0 256.352 0H263.538ZM277.912 0C278.587 0 279.134 0.512579 279.134 1.14488C279.134 1.77718 278.587 2.28976 277.912 2.28976H270.725C270.05 2.28972 269.503 1.77716 269.503 1.14488C269.503 0.512599 270.05 3.25266e-05 270.725 0H277.912ZM292.285 0C292.96 0 293.507 0.512579 293.507 1.14488C293.507 1.77718 292.96 2.28976 292.285 2.28976H285.098C284.423 2.28958 283.876 1.77707 283.876 1.14488C283.876 0.512691 284.423 0.00018141 285.098 0H292.285ZM306.659 0C307.334 0.000193943 307.881 0.512699 307.881 1.14488C307.881 1.77706 307.334 2.28956 306.659 2.28976H299.473C298.798 2.28976 298.25 1.77718 298.25 1.14488C298.25 0.512579 298.798 0 299.473 0H306.659ZM321.032 0C321.707 5.5906e-05 322.255 0.512614 322.255 1.14488C322.255 1.77714 321.707 2.2897 321.032 2.28976H313.846C313.171 2.28976 312.624 1.77718 312.624 1.14488C312.624 0.512579 313.171 0 313.846 0H321.032ZM335.406 0C336.081 0 336.628 0.512579 336.628 1.14488C336.628 1.77718 336.081 2.28976 335.406 2.28976H328.219C327.544 2.28973 326.997 1.77716 326.997 1.14488C326.997 0.512594 327.544 2.39711e-05 328.219 0H335.406ZM349.779 0C350.454 0 351.001 0.512579 351.001 1.14488C351.001 1.77718 350.454 2.28976 349.779 2.28976H342.592C341.917 2.28958 341.37 1.77707 341.37 1.14488C341.37 0.512686 341.917 0.000172857 342.592 0H349.779ZM360.559 0C361.234 0 361.782 0.512579 361.782 1.14488C361.782 1.77718 361.234 2.28976 360.559 2.28976H356.967C356.292 2.28976 355.744 1.77718 355.744 1.14488C355.744 0.512579 356.292 0 356.967 0H360.559Z" fill="var(--fill-0, #5059FF)" fill-opacity="0.14"/>
</svg>
