<svg overflow="visible" style="display: block;" viewBox="0 0 46.0526 44.2105" fill="none" xmlns="http://www.w3.org/2000/svg">
<path id="Vector" d="M22.2796 31.15L11.6961 36.8257C7.90596 38.8583 3.11697 37.5565 0.999646 33.9179C-1.11768 30.2793 0.238445 25.6818 4.02864 23.6492L14.664 17.9456L12.3308 19.1992L11.9251 18.502L7.6925 11.2283C5.57518 7.58972 6.93131 2.99229 10.7215 0.95966C14.5117 -1.07297 19.3007 0.228908 21.418 3.86749L25.7244 11.2679L26.0686 11.8595L23.646 13.1287L34.3565 7.3848C38.1467 5.35218 42.9357 6.65406 45.053 10.2926C47.1703 13.9312 45.8142 18.5287 42.024 20.5613L31.3655 26.2773L33.7648 25.0852L34.2812 25.9726L38.3601 32.9822C40.4774 36.6208 39.1213 41.2182 35.3311 43.2509C31.5409 45.2835 26.7519 43.9816 24.6346 40.343L20.445 33.1433L20.0147 32.4038" fill="var(--fill-0, #F7414B)"/>
</svg>
