<svg overflow="visible" style="display: block;" viewBox="0 0 119.639 29.2452" fill="none" xmlns="http://www.w3.org/2000/svg">
<g id="XTRA red">
<g id="Vector">
<path d="M15.785 20.8923L9.96687 26.7104C7.88324 28.794 4.50502 28.794 2.42139 26.7104C0.337764 24.6268 0.337755 21.2486 2.42138 19.1649L8.26808 13.3182L6.98587 14.6024L6.58662 14.2032L2.42138 10.038C0.337752 7.95433 0.337752 4.57611 2.42138 2.49248C4.505 0.408861 7.88324 0.408852 9.96687 2.49248L14.2047 6.7303L14.5435 7.06906L13.2059 8.38045L19.0939 2.49248C21.1775 0.408858 24.5557 0.408858 26.6393 2.49248C28.723 4.5761 28.723 7.95434 26.6393 10.038L20.7799 15.8974L22.1172 14.6428L22.6253 15.1509L26.6393 19.1649C28.723 21.2486 28.723 24.6268 26.6393 26.7104C24.5557 28.794 21.1775 28.794 19.0939 26.7104L14.9709 22.5875L14.5475 22.164" fill="var(--fill-0, #F7414B)"/>
<path d="M15.785 20.8923L9.96687 26.7104C7.88324 28.794 4.50502 28.794 2.42139 26.7104C0.337764 24.6268 0.337755 21.2486 2.42138 19.1649L8.26808 13.3182L6.98587 14.6024L6.58662 14.2032L2.42138 10.038C0.337752 7.95433 0.337752 4.57611 2.42138 2.49248C4.505 0.408861 7.88324 0.408852 9.96687 2.49248L14.2047 6.7303L14.5435 7.06906L13.2059 8.38045L19.0939 2.49248C21.1775 0.408858 24.5557 0.408858 26.6393 2.49248C28.723 4.5761 28.723 7.95434 26.6393 10.038L20.7799 15.8974L22.1172 14.6428L22.6253 15.1509L26.6393 19.1649C28.723 21.2486 28.723 24.6268 26.6393 26.7104C24.5557 28.794 21.1775 28.794 19.0939 26.7104L14.9709 22.5875L14.5475 22.164" stroke="var(--stroke-0, #3A3534)" stroke-width="1.71732" stroke-linecap="round" stroke-linejoin="round"/>
</g>
<g id="Vector_2">
<path d="M41.777 11.6249H36.1248C33.3447 11.6249 31.091 9.2243 31.091 6.26304C31.091 3.30178 33.3447 0.901193 36.1248 0.901193H53.9244C56.7045 0.901193 58.9583 3.30177 58.9583 6.26303C58.9583 9.22429 56.7045 11.6249 53.9244 11.6249H49.2421L50.356 11.643L50.3865 22.8588C50.3865 25.82 47.9859 28.2206 45.0246 28.2206C42.0634 28.2206 39.6628 25.82 39.6628 22.8588V11.6554" fill="var(--fill-0, #F7414B)"/>
<path d="M41.777 11.6249H36.1248C33.3447 11.6249 31.091 9.2243 31.091 6.26304C31.091 3.30178 33.3447 0.901193 36.1248 0.901193H53.9244C56.7045 0.901193 58.9583 3.30177 58.9583 6.26303C58.9583 9.22429 56.7045 11.6249 53.9244 11.6249H49.2421L50.356 11.643L50.3865 22.8588C50.3865 25.82 47.9859 28.2206 45.0246 28.2206C42.0634 28.2206 39.6628 25.82 39.6628 22.8588V11.6554" stroke="var(--stroke-0, #3A3534)" stroke-width="1.71732" stroke-linecap="round" stroke-linejoin="round"/>
</g>
<g id="Vector_3">
<path d="M67.4918 15.6451H76.6341C80.7513 15.6451 84.2265 12.4451 84.2265 8.32793C84.2265 4.21077 80.8889 0.873147 76.7717 0.873147H68.9657C67.9766 0.866927 67.0142 0.8285 66.0654 1.1539C65.2782 1.42386 64.5586 1.87988 63.9762 2.47408C63.3932 3.0689 62.9515 3.79843 62.6977 4.59188C62.5289 5.1196 62.4438 5.67304 62.4438 6.22702L62.41 22.8958C62.41 25.8571 64.8106 28.2577 67.7718 28.2577C70.7331 28.2577 73.1337 25.8571 73.1337 22.8958L73.1675 15.744L73.1557 20.3893L77.7538 26.2255C79.5773 28.5587 82.947 28.9719 85.2802 27.1483C87.6134 25.3248 88.0265 21.9551 86.203 19.6219L82.0156 14.3902" fill="var(--fill-0, #F7414B)"/>
<path d="M67.4918 15.6451H76.6341C80.7513 15.6451 84.2265 12.4451 84.2265 8.32793C84.2265 4.21077 80.8889 0.873147 76.7717 0.873147H68.9657C67.9766 0.866927 67.0142 0.8285 66.0654 1.1539C65.2782 1.42386 64.5586 1.87988 63.9762 2.47408C63.3932 3.0689 62.9515 3.79843 62.6977 4.59188C62.5289 5.1196 62.4438 5.67304 62.4438 6.22702L62.41 22.8958C62.41 25.8571 64.8106 28.2577 67.7718 28.2577C70.7331 28.2577 73.1337 25.8571 73.1337 22.8958L73.1675 15.744L73.1557 20.3893L77.7538 26.2255C79.5773 28.5587 82.947 28.9719 85.2802 27.1483C87.6134 25.3248 88.0265 21.9551 86.203 19.6219L82.0156 14.3902" stroke="var(--stroke-0, #3A3534)" stroke-width="1.71732" stroke-linecap="round" stroke-linejoin="round"/>
</g>
<g id="Vector_4">
<path d="M105.319 1.20179C104.568 0.877009 103.75 0.805085 102.976 0.893387C101.148 1.10191 99.4453 2.36304 98.7502 4.20867L91.0728 21.4285C90.0834 24.0558 91.4111 26.9876 94.0383 27.9769C96.6656 28.9663 99.3276 27.565 100.587 25.0114L106.032 13.7182L104.334 17.1997L109.116 25.4066C110.46 28.0345 113.575 29.1289 116.075 27.8509C118.574 26.5728 119.511 23.4064 118.168 20.7784L108.299 3.89915C107.043 1.33346 103.964 0.14131 101.38 1.35878" fill="var(--fill-0, #F7414B)"/>
<path d="M105.319 1.20179C104.568 0.877009 103.75 0.805085 102.976 0.893387C101.148 1.10191 99.4453 2.36304 98.7502 4.20867L91.0728 21.4285C90.0834 24.0558 91.4111 26.9876 94.0383 27.9769C96.6656 28.9663 99.3276 27.565 100.587 25.0114L106.032 13.7182L104.334 17.1997L109.116 25.4066C110.46 28.0345 113.575 29.1289 116.075 27.8509C118.574 26.5728 119.511 23.4064 118.168 20.7784L108.299 3.89915C107.043 1.33346 103.964 0.14131 101.38 1.35878" stroke="var(--stroke-0, #3A3534)" stroke-width="1.71732" stroke-linecap="round" stroke-linejoin="round"/>
</g>
</g>
</svg>
