<svg overflow="visible" style="display: block;" viewBox="0 0 29.833 29.2846" fill="none" xmlns="http://www.w3.org/2000/svg">
<path id="Vector" d="M16.0348 3.68428L18.4864 0.547524C19.3309 -0.533028 21.0713 0.0974232 21.0204 1.46545L20.8725 5.43672C20.8383 6.35551 21.6826 7.06057 22.5858 6.8675L26.4897 6.03298C27.8345 5.7455 28.7605 7.34187 27.838 8.35725L25.1599 11.3048C24.5403 11.9868 24.7317 13.067 25.5482 13.4969L29.0778 15.3551C30.2936 15.9952 29.972 17.8105 28.6095 17.9982L24.6543 18.5429C23.7392 18.6689 23.1881 19.6188 23.536 20.4705L25.0397 24.152C25.5577 25.4202 24.1389 26.605 22.9739 25.8771L19.5922 23.7641C18.8099 23.2752 17.7742 23.6503 17.4906 24.5254L16.2648 28.3075C15.8426 29.6103 13.9905 29.6103 13.5682 28.3075L12.3424 24.5254C12.0588 23.6503 11.0232 23.2752 10.2408 23.7641L6.85907 25.8771C5.69415 26.605 4.27535 25.4202 4.79333 24.152L6.297 20.4705C6.64488 19.6188 6.09383 18.6689 5.17874 18.5429L1.22349 17.9982C-0.139022 17.8105 -0.460636 15.9952 0.755223 15.3551L4.28476 13.4969C5.10136 13.067 5.29273 11.9868 4.67313 11.3048L1.99502 8.35725C1.07246 7.34187 1.99851 5.7455 3.34333 6.03298L7.24724 6.8675C8.15045 7.06057 8.99471 6.35551 8.9605 5.43672L8.81265 1.46545C8.76172 0.0974232 10.5021 -0.533028 11.3467 0.547524L13.7983 3.68428C14.3655 4.40999 15.4676 4.40999 16.0348 3.68428Z" fill="var(--fill-0, #5059FF)"/>
</svg>
