<svg overflow="visible" style="display: block;" viewBox="0 0 118.656 118.171" fill="none" xmlns="http://www.w3.org/2000/svg">
<g id="Vector">
<path d="M57.4444 82.7499L30.7506 97.5998C21.1909 102.918 9.11201 99.5117 3.77165 89.9918C-1.56871 80.4719 1.85173 68.4433 11.4114 63.1252L38.2362 48.2025L32.3514 51.4822L31.3281 49.6581L20.6525 30.6275C15.3122 21.1076 18.7326 9.07907 28.2923 3.76096C37.8521 -1.55715 49.931 1.84904 55.2714 11.3689L66.133 30.7311L67.0012 32.2789L60.8909 35.5996L87.905 20.5715C97.4647 15.2534 109.544 18.6596 114.884 28.1795C120.224 37.6994 116.804 49.728 107.244 55.0461L80.361 70.0013L86.4127 66.8824L87.7151 69.204L98.0031 87.5438C103.343 97.0637 99.923 109.092 90.3633 114.41C80.8036 119.728 68.7246 116.322 63.3843 106.802L52.8172 87.9651L51.7318 86.0304" fill="#F7414B"/>
<path d="M57.4444 82.7499L30.7506 97.5998C21.1909 102.918 9.11201 99.5117 3.77165 89.9918C-1.56871 80.4719 1.85173 68.4433 11.4114 63.1252L38.2362 48.2025L32.3514 51.4822L31.3281 49.6581L20.6525 30.6275C15.3122 21.1076 18.7326 9.07907 28.2923 3.76096C37.8521 -1.55715 49.931 1.84904 55.2714 11.3689L66.133 30.7311L67.0012 32.2789L60.8909 35.5996L87.905 20.5715C97.4647 15.2534 109.544 18.6596 114.884 28.1795C120.224 37.6994 116.804 49.728 107.244 55.0461L80.361 70.0013L86.4127 66.8824L87.7151 69.204L98.0031 87.5438C103.343 97.0637 99.923 109.092 90.3633 114.41C80.8036 119.728 68.7246 116.322 63.3843 106.802L52.8172 87.9651L51.7318 86.0304" stroke="var(--stroke-0, #3A3534)" stroke-width="2.5" stroke-linecap="round" stroke-linejoin="round"/>
</g>
</svg>
