<svg overflow="visible" style="display: block;" viewBox="0 0 833.397 765.49" fill="none" xmlns="http://www.w3.org/2000/svg">
<path id="Union" d="M188.546 0.597179C188.907 0.00866514 189.676 -0.176289 190.265 0.184093C190.853 0.544575 191.038 1.31409 190.678 1.90284C169.398 36.6584 164.207 80.6128 180.463 121.393L235.905 260.48L240.744 272.622L282.591 256.114C283.233 255.861 283.957 256.176 284.211 256.817C284.465 257.459 284.15 258.185 283.508 258.439L240.519 275.437C240.424 275.475 240.326 275.498 240.23 275.511L87.5694 335.738C18.3833 363.032 -15.4214 441.04 12.0558 509.971C39.5346 578.906 117.899 612.668 187.089 585.373L382.069 508.452C382.711 508.198 383.438 508.514 383.691 509.156C383.945 509.798 383.629 510.523 382.987 510.777L342.107 526.904L347.507 540.452L402.386 678.125C429.865 747.06 508.23 780.821 577.42 753.526C646.606 726.231 680.41 648.224 652.933 579.292L599.504 445.254L593.186 429.407L550.342 444.754C549.699 444.984 548.99 444.657 548.75 444.018C548.51 443.379 548.827 442.666 549.462 442.416L549.499 442.401L549.511 442.395L745.827 364.948C815.013 337.653 848.818 259.646 821.341 190.714C793.862 121.779 715.497 88.0174 646.308 115.313L494.282 175.288C494.268 175.333 494.254 175.379 494.234 175.422C494.1 175.728 493.848 175.968 493.536 176.087L448.975 193.162C448.332 193.408 447.612 193.089 447.362 192.448C447.113 191.807 447.429 191.084 448.069 190.832L491.288 173.781L487.419 164.073L431.009 22.561C428.103 15.2713 424.629 8.37501 420.657 1.90382C420.296 1.31549 420.481 0.546131 421.069 0.185069C421.658 -0.175609 422.426 0.00837817 422.787 0.596202C426.833 7.18843 430.373 14.2122 433.332 21.6353L489.74 163.146L493.614 172.863L645.39 112.987C715.856 85.1877 795.672 119.57 823.663 189.789C851.655 260.01 817.214 339.472 746.745 367.273L594.955 427.154C594.996 427.218 595.033 427.288 595.063 427.361L601.825 444.33L655.256 578.367C683.248 648.589 648.806 728.051 578.337 755.851C507.871 783.65 428.055 749.269 400.065 679.05L345.185 541.376L339.781 527.821L188.006 587.698C117.54 615.497 37.7243 581.117 9.73349 510.898C-18.2585 440.676 16.1832 361.213 86.6524 333.413L238.419 273.54L233.583 261.406L178.14 122.32C161.58 80.7766 166.873 35.9962 188.546 0.597179Z" fill="var(--fill-0, #3A3534)"/>
</svg>
