<svg overflow="visible" style="display: block;" viewBox="0 0 110.502 109.503" fill="none" xmlns="http://www.w3.org/2000/svg">
<path id="Vector" d="M62.3173 5.31133C70.7696 -3.36034 85.4639 2.80626 85.2095 14.9183C85.0632 21.885 90.2929 27.7935 97.2204 28.488C109.264 29.6955 113.609 45.0389 103.989 52.3915C98.4558 56.6207 97.1011 64.397 100.878 70.2509C107.444 80.4282 98.1673 93.3945 86.426 90.4511C79.6725 88.758 72.7534 92.5464 70.5354 99.1516C66.6793 110.635 50.767 111.46 45.7456 100.437C42.8574 94.097 35.5842 91.0447 29.0417 93.4273C17.6672 97.5697 7.10133 85.6325 12.5811 74.8305C15.7331 68.6172 13.5826 61.0227 7.64223 57.3886C-2.6854 51.0706 0.051483 35.3599 11.906 32.9129C18.7247 31.5055 23.3163 25.0876 22.4513 18.1733C20.9474 6.15249 34.9261 -1.50131 44.2287 6.24949C49.5795 10.7077 57.4556 10.2992 62.3173 5.31133Z" fill="var(--fill-0, #FFD446)" stroke="var(--stroke-0, #3A3534)" stroke-width="2.5" stroke-linecap="round" stroke-linejoin="round"/>
</svg>
