<svg overflow="visible" style="display: block;" viewBox="0 0 227.501 226.5" fill="none" xmlns="http://www.w3.org/2000/svg">
<g id="Vector">
<path d="M110.102 159.077L58.3944 187.834C39.8766 198.132 16.4789 191.536 6.13431 173.101C-4.21033 154.665 2.4153 131.371 20.9331 121.073L72.8944 92.1746L61.4951 98.5259L59.513 94.9934L38.8337 58.1402C28.4891 39.7047 35.1147 16.4111 53.6325 6.11241C72.1503 -4.18625 95.548 2.40993 105.893 20.8454L126.932 58.3409L128.614 61.3381L116.778 67.7687L169.106 38.6665C187.624 28.3678 211.022 34.964 221.366 53.3995C231.711 71.835 225.085 95.1287 206.567 105.427L154.493 134.389L166.215 128.349L168.738 132.845L188.667 168.36C199.012 186.796 192.386 210.089 173.868 220.388C155.35 230.686 131.953 224.09 121.608 205.655L101.139 169.176L99.0364 165.429" fill="var(--fill-0, #F7414B)"/>
<path d="M110.102 159.077L58.3944 187.834C39.8766 198.132 16.4789 191.536 6.13431 173.101C-4.21033 154.665 2.4153 131.371 20.9331 121.073L72.8944 92.1746L61.4951 98.5259L59.513 94.9934L38.8337 58.1402C28.4891 39.7047 35.1147 16.4111 53.6325 6.11241C72.1503 -4.18625 95.548 2.40993 105.893 20.8454L126.932 58.3409L128.614 61.3381L116.778 67.7687L169.106 38.6665C187.624 28.3678 211.022 34.964 221.366 53.3995C231.711 71.835 225.085 95.1287 206.567 105.427L154.493 134.389L166.215 128.349L168.738 132.845L188.667 168.36C199.012 186.796 192.386 210.089 173.868 220.388C155.35 230.686 131.953 224.09 121.608 205.655L101.139 169.176L99.0364 165.429" stroke="var(--stroke-0, #3A3534)" stroke-width="2.5" stroke-linecap="round" stroke-linejoin="round"/>
</g>
</svg>
