<svg overflow="visible" style="display: block;" viewBox="0 0 130.518 32.0019" fill="none" xmlns="http://www.w3.org/2000/svg">
<g id="XTRA red">
<g id="Vector">
<path d="M17.2677 22.8339L10.9267 29.1749C8.65585 31.4458 4.97404 31.4458 2.70317 29.1749C0.432295 26.9041 0.432285 23.2223 2.70316 20.9514L9.07527 14.5793L7.67784 15.9789L7.2427 15.5437L2.70315 11.0042C0.432282 8.73332 0.432282 5.05151 2.70315 2.78064C4.97403 0.509769 8.65585 0.50976 10.9267 2.78063L15.5454 7.39929L15.9146 7.76849L14.4568 9.19773L20.8739 2.78064C23.1448 0.509766 26.8266 0.509766 29.0975 2.78064C31.3683 5.05151 31.3683 8.73333 29.0975 11.0042L22.7115 17.3902L24.1689 16.0228L24.7227 16.5766L29.0975 20.9514C31.3683 23.2223 31.3683 26.9041 29.0975 29.1749C26.8266 31.4458 23.1448 31.4458 20.8739 29.1749L16.3805 24.6815L15.919 24.22" fill="var(--fill-0, #F7414B)"/>
<path d="M17.2677 22.8339L10.9267 29.1749C8.65585 31.4458 4.97404 31.4458 2.70317 29.1749C0.432295 26.9041 0.432285 23.2223 2.70316 20.9514L9.07527 14.5793L7.67784 15.9789L7.2427 15.5437L2.70315 11.0042C0.432282 8.73332 0.432282 5.05151 2.70315 2.78064C4.97403 0.509769 8.65585 0.50976 10.9267 2.78063L15.5454 7.39929L15.9146 7.76849L14.4568 9.19773L20.8739 2.78064C23.1448 0.509766 26.8266 0.509766 29.0975 2.78064C31.3683 5.05151 31.3683 8.73333 29.0975 11.0042L22.7115 17.3902L24.1689 16.0228L24.7227 16.5766L29.0975 20.9514C31.3683 23.2223 31.3683 26.9041 29.0975 29.1749C26.8266 31.4458 23.1448 31.4458 20.8739 29.1749L16.3805 24.6815L15.919 24.22" stroke="var(--stroke-0, #3A3534)" stroke-width="2" stroke-linecap="round" stroke-linejoin="round"/>
</g>
<g id="Vector_2">
<path d="M45.5955 12.7337H39.4354C36.4055 12.7337 33.9492 10.1174 33.9492 6.89006C33.9492 3.66268 36.4055 1.04637 39.4354 1.04637H58.8346C61.8645 1.04637 64.3208 3.66267 64.3208 6.89005C64.3208 10.1174 61.8645 12.7337 58.8346 12.7337H53.7315L54.9455 12.7535L54.9787 24.9772C54.9787 28.2046 52.3624 30.8209 49.135 30.8209C45.9076 30.8209 43.2913 28.2046 43.2913 24.9772V12.767" fill="var(--fill-0, #F7414B)"/>
<path d="M45.5955 12.7337H39.4354C36.4055 12.7337 33.9492 10.1174 33.9492 6.89006C33.9492 3.66268 36.4055 1.04637 39.4354 1.04637H58.8346C61.8645 1.04637 64.3208 3.66267 64.3208 6.89005C64.3208 10.1174 61.8645 12.7337 58.8346 12.7337H53.7315L54.9455 12.7535L54.9787 24.9772C54.9787 28.2046 52.3624 30.8209 49.135 30.8209C45.9076 30.8209 43.2913 28.2046 43.2913 24.9772V12.767" stroke="var(--stroke-0, #3A3534)" stroke-width="2" stroke-linecap="round" stroke-linejoin="round"/>
</g>
<g id="Vector_3">
<path d="M73.6213 17.1153H83.5852C88.0723 17.1153 91.8599 13.6277 91.8599 9.14052C91.8599 4.65336 88.2223 1.0158 83.7352 1.0158H75.2276C74.1497 1.00902 73.1008 0.967139 72.0667 1.32178C71.2088 1.616 70.4245 2.113 69.7897 2.7606C69.1543 3.40887 68.6729 4.20397 68.3963 5.06873C68.2124 5.64387 68.1196 6.24704 68.1196 6.8508L68.0828 25.0176C68.0828 28.245 70.6991 30.8613 73.9265 30.8613C77.1539 30.8613 79.7702 28.245 79.7702 25.0176L79.807 17.2231L79.7942 22.2858L84.8055 28.6465C86.7929 31.1894 90.4654 31.6397 93.0083 29.6522C95.5511 27.6648 96.0014 23.9923 94.014 21.4494L89.4503 15.7476" fill="var(--fill-0, #F7414B)"/>
<path d="M73.6213 17.1153H83.5852C88.0723 17.1153 91.8599 13.6277 91.8599 9.14052C91.8599 4.65336 88.2223 1.0158 83.7352 1.0158H75.2276C74.1497 1.00902 73.1008 0.967139 72.0667 1.32178C71.2088 1.616 70.4245 2.113 69.7897 2.7606C69.1543 3.40887 68.6729 4.20397 68.3963 5.06873C68.2124 5.64387 68.1196 6.24704 68.1196 6.8508L68.0828 25.0176C68.0828 28.245 70.6991 30.8613 73.9265 30.8613C77.1539 30.8613 79.7702 28.245 79.7702 25.0176L79.807 17.2231L79.7942 22.2858L84.8055 28.6465C86.7929 31.1894 90.4654 31.6397 93.0083 29.6522C95.5511 27.6648 96.0014 23.9923 94.014 21.4494L89.4503 15.7476" stroke="var(--stroke-0, #3A3534)" stroke-width="2" stroke-linecap="round" stroke-linejoin="round"/>
</g>
<g id="Vector_4">
<path d="M114.848 1.37397C114.029 1.02 113.138 0.941609 112.294 1.03785C110.302 1.26511 108.446 2.63958 107.689 4.65106L99.3214 23.4184C98.2431 26.2817 99.6901 29.477 102.553 30.5553C105.417 31.6336 108.318 30.1063 109.69 27.3232L115.625 15.0152L113.775 18.8095L118.986 27.7539C120.45 30.6181 123.846 31.8108 126.57 30.4179C129.294 29.025 130.316 25.574 128.851 22.7098L118.096 4.31373C116.726 1.51747 113.372 0.218183 110.555 1.54506" fill="var(--fill-0, #F7414B)"/>
<path d="M114.848 1.37397C114.029 1.02 113.138 0.941609 112.294 1.03785C110.302 1.26511 108.446 2.63958 107.689 4.65106L99.3214 23.4184C98.2431 26.2817 99.6901 29.477 102.553 30.5553C105.417 31.6336 108.318 30.1063 109.69 27.3232L115.625 15.0152L113.775 18.8095L118.986 27.7539C120.45 30.6181 123.846 31.8108 126.57 30.4179C129.294 29.025 130.316 25.574 128.851 22.7098L118.096 4.31373C116.726 1.51747 113.372 0.218183 110.555 1.54506" stroke="var(--stroke-0, #3A3534)" stroke-width="2" stroke-linecap="round" stroke-linejoin="round"/>
</g>
</g>
</svg>
