<svg overflow="visible" style="display: block;" viewBox="0 0 333.675 643.987" fill="none" xmlns="http://www.w3.org/2000/svg">
<g id="Group">
<path id="Vector" d="M264.542 643.912C257.543 643.782 249.531 643.593 243.914 643.426C242.242 643.376 238.383 643.286 235.338 643.224C232.292 643.163 228.14 643.069 226.11 643.015C220.467 642.865 214.834 642.723 210.042 642.61C204.134 642.471 197.331 642.306 192.889 642.194C190.859 642.143 186.853 642.05 183.987 641.988C181.121 641.926 177.31 641.834 175.519 641.784C173.727 641.734 169.966 641.644 167.159 641.585C162.406 641.484 159.849 641.421 150.332 641.17C148.301 641.116 144.295 641.024 141.429 640.965C138.563 640.907 134.85 640.815 133.178 640.761C131.507 640.708 127.696 640.614 124.71 640.553C121.725 640.492 117.865 640.4 116.134 640.349C114.402 640.297 110.543 640.206 107.557 640.146C104.572 640.087 100.566 639.994 98.6549 639.939C96.7442 639.884 92.8847 639.792 90.0783 639.734C87.2719 639.675 83.5102 639.584 81.7189 639.53C79.9275 639.476 76.2146 639.381 73.468 639.318C61.013 639.035 53.0579 638.654 47.7382 638.084C45.8991 637.887 41.2179 637.197 40.2472 636.98C36.6132 636.166 35.3729 635.848 33.4903 635.246C23.2164 631.963 15.4181 626.548 9.38813 618.51C7.74991 616.327 7.45615 615.858 5.98311 613.076C4.43663 610.156 3.41938 607.671 2.48471 604.533C1.75653 602.088 1.62329 601.483 0.932115 597.491C0.407487 594.461 0.0153508 588.76 0.000548249 583.957C-0.012425 579.367 0.203001 572.757 0.843191 558.118C1.12443 551.687 1.24157 548.934 1.4889 542.943C2.00828 530.362 2.135 527.396 2.24681 525.205C2.30147 524.133 2.40051 521.734 2.46689 519.873C2.53328 518.012 2.63464 515.521 2.69215 514.336C2.74966 513.152 2.89254 509.83 3.00966 506.954C3.12678 504.078 3.27375 500.617 3.33627 499.264C3.39879 497.91 3.54537 494.45 3.66201 491.574C3.77865 488.698 3.92177 485.283 3.98006 483.986C4.15176 480.165 4.30981 476.486 4.42925 473.528C4.49074 472.005 4.5843 470.021 4.63714 469.119C4.68999 468.217 4.78539 466.002 4.84913 464.198C4.95833 461.106 5.01718 459.674 5.29138 453.431C5.35331 452.022 5.54623 447.408 5.72008 443.178C5.89394 438.949 6.08956 434.242 6.1548 432.72C6.22005 431.197 6.41854 426.491 6.59589 422.261C6.77325 418.032 6.96627 413.51 7.02485 412.213C7.08342 410.916 7.23029 407.409 7.35123 404.421C7.47218 401.432 7.66712 396.864 7.78443 394.27C7.90175 391.676 8.04811 388.354 8.10967 386.887C8.17124 385.421 8.31758 382.007 8.43489 379.3C8.55219 376.593 8.70077 372.994 8.76505 371.302C8.82933 369.61 8.92634 367.396 8.98062 366.381C9.0349 365.366 9.13214 363.151 9.1967 361.459C9.26127 359.767 9.36094 357.46 9.41819 356.332C9.47545 355.205 9.57335 352.898 9.63575 351.206C9.74246 348.313 10.0271 341.501 10.2827 335.723C10.345 334.313 10.4423 332.052 10.4989 330.699C10.5554 329.346 10.653 327.039 10.7156 325.572C10.7783 324.106 10.8785 321.753 10.9383 320.343C11.152 315.308 11.2699 312.622 11.3705 310.5C11.4266 309.316 11.5233 306.963 11.5855 305.271C11.6477 303.579 11.745 301.087 11.8018 299.734C11.9301 296.675 12.0748 293.203 12.3491 286.61C12.9162 272.976 13.431 260.961 13.5352 258.926C13.5988 257.685 13.7476 254.178 13.8659 251.133C14.1213 244.56 14.263 241.332 14.406 238.829C14.4639 237.814 14.5641 235.553 14.6286 233.805C14.693 232.057 14.79 229.75 14.844 228.678C14.898 227.607 14.9959 225.208 15.0617 223.347C15.1274 221.486 15.2254 218.948 15.2794 217.707C15.4413 213.99 15.601 210.273 15.7155 207.556C15.775 206.147 15.8703 203.978 15.9273 202.737C15.9842 201.497 16.083 199.097 16.1466 197.406C16.3462 192.102 16.6396 185.111 16.7963 181.923C16.8545 180.739 16.9537 178.432 17.0167 176.796C17.0797 175.161 17.1753 173.039 17.2291 172.08C17.2829 171.121 17.382 168.86 17.4493 167.056C17.5761 163.656 18.6034 139.108 18.9682 130.759C19.2023 125.402 19.3032 123.065 19.4065 120.608C19.5088 118.174 19.5973 116.137 19.8337 110.765C19.8908 109.468 19.9971 106.884 20.0698 105.023C20.1425 103.162 20.2352 100.947 20.2756 100.101C20.3161 99.2555 20.4049 97.1331 20.4731 95.3849C20.5412 93.6367 20.6452 91.1451 20.7041 89.8481C20.763 88.5511 20.8615 86.1979 20.923 84.6189C20.9845 83.0399 21.0854 80.6867 21.1472 79.3897C21.209 78.0926 21.4499 72.3713 21.6826 66.6756C22.5366 45.7666 23.0244 40.1136 24.4783 34.275C26.7376 25.2019 30.4574 18.7403 36.8359 12.8089C38.558 11.2075 42.6663 8.1089 43.3822 7.8715C43.5687 7.80965 43.8678 7.6415 44.047 7.49784C44.6226 7.0362 49.7378 4.63106 51.755 3.87354C55.3683 2.51672 60.5225 1.26561 63.8029 0.949088C64.5777 0.874337 65.2684 0.779956 65.338 0.739352C65.4815 0.655566 69.0287 0.320179 71.948 0.114372C74.1511 -0.0409432 94.8424 -0.0370473 100.826 0.119809C102.976 0.176157 109.18 0.273062 114.614 0.335154C120.048 0.397246 126.252 0.490356 128.402 0.542065C130.551 0.593775 136.902 0.684813 142.515 0.744373C148.128 0.803932 154.088 0.897079 155.76 0.951367C157.432 1.00566 163.539 1.09759 169.33 1.15566C175.122 1.21373 181.815 1.30656 184.204 1.36194C186.592 1.41733 192.357 1.51036 197.014 1.56868C201.672 1.62701 208.121 1.71817 211.345 1.77128C219.404 1.904 229.482 2.05787 238.269 2.18235C242.329 2.23987 248.387 2.33201 251.731 2.38711C255.075 2.44221 261.035 2.53484 264.976 2.59296C282.714 2.85456 289.303 3.34019 296.91 4.94647C311.067 7.93587 322.175 15.7669 328.091 26.9271C329.047 28.7308 330.424 32.005 330.879 33.5573C332.499 39.0811 333.112 43.2285 333.504 51.2955C333.681 54.9375 333.715 86.0132 333.63 164.255C333.566 223.619 333.481 272.216 333.442 272.249C333.403 272.282 332.269 272.925 330.922 273.677C324.78 277.109 320.044 281.48 318.312 285.316C317.802 286.445 316.611 290.399 316.204 292.313C315.739 294.501 315.577 299.156 315.875 301.785C316.878 310.645 321.189 322.021 326.325 329.366C327.695 331.325 328.749 332.522 330.799 334.444L333.48 336.958V348.209V359.46L331.689 360.758C330.703 361.473 328.041 363.824 325.772 365.984C322.27 369.318 321.257 370.152 319.069 371.507C312.537 375.549 306.701 380.969 303.74 385.744C302.629 387.535 301.275 391.593 300.69 394.885C299.867 399.518 300.134 405.763 301.351 410.305C302.999 416.456 309.659 424.623 317.894 430.589C320.228 432.28 321.464 432.802 325.428 433.767C327.434 434.256 332.595 435.18 333.317 435.181C333.407 435.181 333.48 440.437 333.48 446.861V458.542L332.557 458.763C322.195 461.238 317.135 463.508 312.718 467.665C307.852 472.244 306.12 476.578 306.124 484.167C306.124 486.041 306.223 488.406 306.343 489.421C306.735 492.748 307.667 497.185 308.216 498.341C309.82 501.716 314.662 507.212 318.816 510.374C322.805 513.411 328.695 516.679 331.907 517.638L333.483 518.109L333.448 550.213C333.405 588.6 333.286 594.275 332.385 600.669C331.327 608.181 329.851 613.074 326.974 618.613C320.518 631.042 309.185 639.178 293.854 642.389C287.39 643.743 278.972 644.18 264.542 643.912ZM216.117 35.8435C222.835 33.994 226.714 29.3215 226.39 23.4668C226.07 17.6812 221.632 13.2686 214.925 12.0659C212.724 11.6712 209.381 11.554 196.146 11.4077C190.653 11.347 184.643 11.2562 182.792 11.2059C177.009 11.0486 157.626 10.8133 149.68 10.8039L142.081 10.7949L140.127 11.3714C137.482 12.1518 135.653 13.159 133.949 14.7741C130.147 18.3786 129.176 23.5194 131.448 28.0205C132.63 30.3622 134.678 32.3563 137.087 33.51C140.855 35.3151 141.801 35.4066 158.8 35.6084C164.054 35.6708 169.966 35.7626 171.936 35.8125C173.906 35.8623 180.697 35.9634 187.026 36.0371C193.356 36.1108 198.575 36.2061 198.625 36.2488C198.675 36.2916 202.339 36.2983 206.768 36.2638C213.648 36.2101 215.008 36.149 216.117 35.8435Z" fill="var(--fill-0, white)"/>
</g>
</svg>
