<svg overflow="visible" style="display: block;" viewBox="0 0 36.25 36.2498" fill="none" xmlns="http://www.w3.org/2000/svg">
<g id="Group 19">
<path id="Stroke 1" fill-rule="evenodd" clip-rule="evenodd" d="M33.125 10.6248H3.125C2.09 10.6248 1.25 11.4648 1.25 12.4998V16.2498C1.25 17.2848 2.09 18.1248 3.125 18.1248H33.125C34.16 18.1248 35 17.2848 35 16.2498V12.4998C35 11.4648 34.16 10.6248 33.125 10.6248Z" stroke="white" stroke-width="2.5" stroke-linecap="round" stroke-linejoin="round"/>
<path id="Stroke 3" d="M18.125 34.9998V10.6248" stroke="white" stroke-width="2.5" stroke-linecap="round" stroke-linejoin="round"/>
<path id="Stroke 5" d="M25.0554 8.02156C23.0341 10.1253 19.8523 10.6241 18.311 10.6241" stroke="white" stroke-width="2.5" stroke-linecap="round" stroke-linejoin="round"/>
<path id="Stroke 7" d="M18.3114 10.6248C18.3114 10.6248 17.3851 4.78231 19.6633 2.41231" stroke="white" stroke-width="2.5" stroke-linecap="round" stroke-linejoin="round"/>
<path id="Stroke 9" d="M25.0554 8.02156C26.5441 6.47281 26.5441 3.96031 25.0554 2.41156C23.5666 0.862813 21.1535 0.862813 19.6648 2.41156" stroke="white" stroke-width="2.5" stroke-linecap="round" stroke-linejoin="round"/>
<path id="Stroke 11" d="M11.1946 8.02156C13.2159 10.1253 16.3977 10.6241 17.939 10.6241" stroke="white" stroke-width="2.5" stroke-linecap="round" stroke-linejoin="round"/>
<path id="Stroke 13" d="M17.9386 10.6248C17.9386 10.6248 18.8649 4.78231 16.5867 2.41231" stroke="white" stroke-width="2.5" stroke-linecap="round" stroke-linejoin="round"/>
<path id="Stroke 15" d="M11.1946 8.02156C9.70588 6.47281 9.70588 3.96031 11.1946 2.41156C12.6834 0.862813 15.0965 0.862813 16.5853 2.41156" stroke="white" stroke-width="2.5" stroke-linecap="round" stroke-linejoin="round"/>
<path id="Stroke 17" d="M31.25 18.1248V33.1248C31.25 34.1598 30.41 34.9998 29.375 34.9998H6.875C5.84 34.9998 5 34.1598 5 33.1248V18.1248" stroke="white" stroke-width="2.5" stroke-linecap="round" stroke-linejoin="round"/>
</g>
</svg>
