<svg overflow="visible" style="display: block;" viewBox="0 0 21.5003 15.3502" fill="none" xmlns="http://www.w3.org/2000/svg">
<g id="Group">
<g id="Vector 4">
</g>
<path id="Vector" d="M18.1102 0.750203L20.7502 1.6302L20.1802 4.3802" stroke="#F7414B" stroke-width="1.5" stroke-linecap="round" stroke-linejoin="round"/>
<path id="Vector_2" d="M10.9901 7.27019L6.82015 9.67019" stroke="#F7414B" stroke-width="1.5" stroke-linecap="round" stroke-linejoin="round"/>
<path id="Vector_3" d="M4.29016 8.73021C4.00016 8.01021 3.83016 7.25021 3.83016 6.45021C3.83016 4.24021 5.53016 1.88021 8.06016 1.88021C9.50016 1.88021 10.4502 2.60021 11.0002 3.24021C11.5502 2.60021 12.5002 1.88021 13.9502 1.88021C16.4702 1.88021 18.1602 4.24021 18.1602 6.45021C18.1602 11.0702 12.4202 14.6002 11.0002 14.6002C10.2402 14.6002 8.21016 13.5702 6.51016 11.8902" stroke="#F7414B" stroke-width="1.5" stroke-linecap="round" stroke-linejoin="round"/>
<path id="Vector_4" d="M17.2302 3.67021L20.7502 1.63021" stroke="#F7414B" stroke-width="1.5" stroke-linecap="round" stroke-linejoin="round"/>
<path id="Vector_5" d="M3.22023 11.7502L2.84023 14.3902" stroke="#F7414B" stroke-width="1.5" stroke-linecap="round" stroke-linejoin="round"/>
<path id="Vector_6" d="M0.7502 10.7702L3.2202 11.7502" stroke="#F7414B" stroke-width="1.5" stroke-linecap="round" stroke-linejoin="round"/>
<path id="Vector_7" d="M4.3702 8.6802L0.7502 10.7702" stroke="#F7414B" stroke-width="1.5" stroke-linecap="round" stroke-linejoin="round"/>
<path id="Vector_8" d="M6.8202 9.6702L4.3702 8.6802" stroke="#F7414B" stroke-width="1.5" stroke-linecap="round" stroke-linejoin="round"/>
<path id="Vector_9" d="M6.44014 12.3102L6.82014 9.67022" stroke="#F7414B" stroke-width="1.5" stroke-linecap="round" stroke-linejoin="round"/>
<path id="Vector_10" d="M2.84023 14.3902L6.44023 12.3102" stroke="#F7414B" stroke-width="1.5" stroke-linecap="round" stroke-linejoin="round"/>
</g>
</svg>
