<svg overflow="visible" style="display: block;" viewBox="0 0 21.5004 19.4999" fill="none" xmlns="http://www.w3.org/2000/svg">
<g id="Group 23">
<path id="Stroke 1" fill-rule="evenodd" clip-rule="evenodd" d="M17.8796 14.8905V14.8905C19.5756 14.2745 20.3296 12.2955 19.4736 10.7075L16.9466 6.0165C16.7116 5.5795 16.1916 5.3815 15.7246 5.5505L13.4316 6.3835C12.9586 6.5555 12.6866 7.0535 12.7986 7.5455L13.9846 12.7655C14.3796 14.5015 16.2066 15.4985 17.8796 14.8905Z" stroke="var(--stroke-0, white)" stroke-width="1.5" stroke-linecap="round" stroke-linejoin="round"/>
<path id="Stroke 3" d="M20.7502 17.5247L17.3782 18.7497" stroke="var(--stroke-0, white)" stroke-width="1.5" stroke-linecap="round" stroke-linejoin="round"/>
<path id="Stroke 5" d="M13.4373 10.3573H19.2853" stroke="var(--stroke-0, white)" stroke-width="1.5" stroke-linecap="round" stroke-linejoin="round"/>
<path id="Stroke 7" d="M17.8839 14.8889L19.0639 18.1369" stroke="var(--stroke-0, white)" stroke-width="1.5" stroke-linecap="round" stroke-linejoin="round"/>
<path id="Stroke 9" fill-rule="evenodd" clip-rule="evenodd" d="M3.6208 14.8905V14.8905C1.9248 14.2745 1.1708 12.2955 2.0268 10.7075L4.5538 6.0165C4.7888 5.5795 5.3088 5.3815 5.7758 5.5505L8.0688 6.3835C8.5418 6.5555 8.8138 7.0535 8.7018 7.5455L7.5158 12.7655C7.1208 14.5015 5.2938 15.4985 3.6208 14.8905Z" stroke="var(--stroke-0, white)" stroke-width="1.5" stroke-linecap="round" stroke-linejoin="round"/>
<path id="Stroke 11" d="M0.750204 17.5247L4.1222 18.7497" stroke="var(--stroke-0, white)" stroke-width="1.5" stroke-linecap="round" stroke-linejoin="round"/>
<path id="Stroke 13" d="M8.0631 10.3573H2.2151" stroke="var(--stroke-0, white)" stroke-width="1.5" stroke-linecap="round" stroke-linejoin="round"/>
<path id="Stroke 15" d="M3.6165 14.8889L2.4365 18.1369" stroke="var(--stroke-0, white)" stroke-width="1.5" stroke-linecap="round" stroke-linejoin="round"/>
<path id="Stroke 17" d="M13.7502 2.75L14.7502 1.75" stroke="var(--stroke-0, white)" stroke-width="1.5" stroke-linecap="round" stroke-linejoin="round"/>
<path id="Stroke 19" d="M7.7502 2.75L6.7502 1.75" stroke="var(--stroke-0, white)" stroke-width="1.5" stroke-linecap="round" stroke-linejoin="round"/>
<path id="Stroke 21" d="M10.7502 1.75V0.75" stroke="var(--stroke-0, white)" stroke-width="1.5" stroke-linecap="round" stroke-linejoin="round"/>
</g>
</svg>
