<svg overflow="visible" style="display: block;" viewBox="0 0 138.455 33.3696" fill="none" xmlns="http://www.w3.org/2000/svg">
<g id="XTRA red">
<g id="Vector">
<path d="M18.0364 23.9737L11.2727 30.7375C8.85039 33.1597 4.92313 33.1597 2.50087 30.7375C0.0786026 28.3152 0.0785923 24.3879 2.50086 21.9656L9.29778 15.1687L7.80718 16.6616L7.34304 16.1975L2.50085 11.3553C0.0785889 8.93305 0.0785889 5.00579 2.50085 2.58353C4.92312 0.161263 8.85039 0.161253 11.2727 2.58352L16.1992 7.51009L16.593 7.9039L15.0381 9.42842L21.883 2.58352C24.3053 0.16126 28.2325 0.16126 30.6548 2.58352C33.077 5.00579 33.0771 8.93306 30.6548 11.3553L23.8431 18.1671L25.3976 16.7085L25.9884 17.2992L30.6548 21.9657C33.0771 24.3879 33.0771 28.3152 30.6548 30.7374C28.2325 33.1597 24.3053 33.1597 21.883 30.7375L17.09 25.9445L16.5977 25.4522" fill="var(--fill-0, #F7414B)"/>
<path d="M18.0364 23.9737L11.2727 30.7375C8.85039 33.1597 4.92313 33.1597 2.50087 30.7375C0.0786026 28.3152 0.0785923 24.3879 2.50086 21.9656L9.29778 15.1687L7.80718 16.6616L7.34304 16.1975L2.50085 11.3553C0.0785889 8.93305 0.0785889 5.00579 2.50085 2.58353C4.92312 0.161263 8.85039 0.161253 11.2727 2.58352L16.1992 7.51009L16.593 7.9039L15.0381 9.42842L21.883 2.58352C24.3053 0.16126 28.2325 0.16126 30.6548 2.58352C33.077 5.00579 33.0771 8.93306 30.6548 11.3553L23.8431 18.1671L25.3976 16.7085L25.9884 17.2992L30.6548 21.9657C33.0771 24.3879 33.0771 28.3152 30.6548 30.7374C28.2325 33.1597 24.3053 33.1597 21.883 30.7375L17.09 25.9445L16.5977 25.4522" stroke="var(--stroke-0, #3A3534)" stroke-width="1.36831" stroke-linecap="round" stroke-linejoin="round"/>
</g>
<g id="Vector_2">
<path d="M48.2527 13.2001H41.6819C38.45 13.2001 35.83 10.4094 35.83 6.96688C35.83 3.52435 38.45 0.733608 41.6819 0.733608H62.3744C65.6063 0.733608 68.2263 3.52433 68.2263 6.96687C68.2263 10.4094 65.6063 13.2001 62.3744 13.2001H56.9311L58.226 13.2212L58.2614 26.2598C58.2614 29.7024 55.4707 32.4931 52.0282 32.4931C48.5856 32.4931 45.7949 29.7024 45.7949 26.2598V13.2356" fill="var(--fill-0, #F7414B)"/>
<path d="M48.2527 13.2001H41.6819C38.45 13.2001 35.83 10.4094 35.83 6.96688C35.83 3.52435 38.45 0.733608 41.6819 0.733608H62.3744C65.6063 0.733608 68.2263 3.52433 68.2263 6.96687C68.2263 10.4094 65.6063 13.2001 62.3744 13.2001H56.9311L58.226 13.2212L58.2614 26.2598C58.2614 29.7024 55.4707 32.4931 52.0282 32.4931C48.5856 32.4931 45.7949 29.7024 45.7949 26.2598V13.2356" stroke="var(--stroke-0, #3A3534)" stroke-width="1.36831" stroke-linecap="round" stroke-linejoin="round"/>
</g>
<g id="Vector_3">
<path d="M78.1468 17.8737H88.7749C93.5613 17.8737 97.6013 14.1537 97.6013 9.36735C97.6013 4.58105 93.7213 0.700979 88.935 0.700979H79.8602C78.7104 0.693748 77.5916 0.649076 76.4886 1.02736C75.5735 1.34119 74.7369 1.87132 74.0598 2.5621C73.3821 3.25359 72.8686 4.10169 72.5736 5.0241C72.3773 5.63759 72.2784 6.28097 72.2784 6.92498L72.2391 26.3029C72.2391 29.7454 75.0298 32.5362 78.4724 32.5362C81.9149 32.5362 84.7056 29.7454 84.7056 26.3029L84.7449 17.9887L84.7312 23.3889L90.0766 30.1738C92.1965 32.8861 96.1139 33.3664 98.8263 31.2465C101.539 29.1266 102.019 25.2092 99.899 22.4969L95.0311 16.4149" fill="var(--fill-0, #F7414B)"/>
<path d="M78.1468 17.8737H88.7749C93.5613 17.8737 97.6013 14.1537 97.6013 9.36735C97.6013 4.58105 93.7213 0.700979 88.935 0.700979H79.8602C78.7104 0.693748 77.5916 0.649076 76.4886 1.02736C75.5735 1.34119 74.7369 1.87132 74.0598 2.5621C73.3821 3.25359 72.8686 4.10169 72.5736 5.0241C72.3773 5.63759 72.2784 6.28097 72.2784 6.92498L72.2391 26.3029C72.2391 29.7454 75.0298 32.5362 78.4724 32.5362C81.9149 32.5362 84.7056 29.7454 84.7056 26.3029L84.7449 17.9887L84.7312 23.3889L90.0766 30.1738C92.1965 32.8861 96.1139 33.3664 98.8263 31.2465C101.539 29.1266 102.019 25.2092 99.899 22.4969L95.0311 16.4149" stroke="var(--stroke-0, #3A3534)" stroke-width="1.36831" stroke-linecap="round" stroke-linejoin="round"/>
</g>
<g id="Vector_4">
<path d="M122.122 1.08307C121.248 0.705499 120.298 0.621885 119.398 0.724539C117.273 0.966949 115.293 2.43305 114.485 4.57863L105.56 24.5972C104.41 27.6514 105.954 31.0597 109.008 32.2098C112.062 33.36 115.157 31.7309 116.62 28.7623L122.951 15.6338L120.977 19.681L126.536 29.2217C128.098 32.2768 131.72 33.549 134.626 32.0633C137.531 30.5775 138.621 26.8964 137.059 23.8413L125.586 4.21881C124.126 1.23613 120.547 -0.149769 117.543 1.26557" fill="var(--fill-0, #F7414B)"/>
<path d="M122.122 1.08307C121.248 0.705499 120.298 0.621885 119.398 0.724539C117.273 0.966949 115.293 2.43305 114.485 4.57863L105.56 24.5972C104.41 27.6514 105.954 31.0597 109.008 32.2098C112.062 33.36 115.157 31.7309 116.62 28.7623L122.951 15.6338L120.977 19.681L126.536 29.2217C128.098 32.2768 131.72 33.549 134.626 32.0633C137.531 30.5775 138.621 26.8964 137.059 23.8413L125.586 4.21881C124.126 1.23613 120.547 -0.149769 117.543 1.26557" stroke="var(--stroke-0, #3A3534)" stroke-width="1.36831" stroke-linecap="round" stroke-linejoin="round"/>
</g>
</g>
</svg>
