<svg overflow="visible" style="display: block;" viewBox="0 0 320.228 41.2463" fill="none" xmlns="http://www.w3.org/2000/svg">
<g id="giftcard">
<path id="Vector" d="M0 20.7375V20.6235C0 9.68452 8.03284 0 19.9963 0C26.0353 0 29.9665 1.5953 33.6126 4.27269C34.1252 4.67182 34.5237 5.29778 34.5237 6.09606C34.5237 7.34923 33.4986 8.37434 32.3018 8.37434C31.7892 8.37434 31.3337 8.14688 30.8776 7.80476C28.0291 5.6399 24.8391 4.15865 19.8252 4.15865C10.9953 4.15865 4.6712 11.6219 4.6712 20.5094V20.6235C4.6712 30.1369 10.7673 37.2017 20.4524 37.2017C25.0096 37.2017 29.2259 35.4354 31.9603 33.2135V23.3009H21.2501C20.1673 23.3009 19.2556 22.3892 19.2556 21.3071C19.2556 20.1673 20.1673 19.2563 21.2501 19.2563H34.0681C35.2643 19.2563 36.29 20.2814 36.29 21.5345V33.6696C36.29 34.7517 35.7775 35.7205 34.7517 36.4041C31.1056 39.0815 26.2064 41.2463 20.2814 41.2463C7.74775 41.2463 0 32.1314 0 20.7375Z" fill="var(--fill-0, #3A3534)"/>
<path id="Vector_2" d="M50.0767 2.67739C50.0767 1.42422 51.1018 0.398486 52.2986 0.398486C53.5518 0.398486 54.5775 1.42421 54.5775 2.67739V38.5689C54.5775 39.8221 53.5518 40.8478 52.2986 40.8478C51.1018 40.8478 50.0767 39.8221 50.0767 38.5689V2.67739Z" fill="var(--fill-0, #3A3534)"/>
<path id="Vector_3" d="M69.5028 2.96247C69.5028 1.70931 70.5286 0.683571 71.7247 0.683571H96.3928C97.5326 0.683571 98.4443 1.59525 98.4443 2.7344C98.4443 3.87354 97.5326 4.84224 96.3928 4.84224H74.0036V19.0852H93.8294C94.9686 19.0852 95.8803 19.9962 95.8803 21.136C95.8803 22.2751 94.9686 23.1868 93.8294 23.1868H74.0036V38.5689C74.0036 39.8221 72.9779 40.8478 71.7247 40.8478C70.5286 40.8478 69.5028 39.8221 69.5028 38.5689V2.96247Z" fill="var(--fill-0, #3A3534)"/>
<path id="Vector_4" d="M120.662 4.84224H109.097C107.958 4.84224 106.99 3.93055 106.99 2.79141C106.99 1.65227 107.958 0.683571 109.097 0.683571H136.785C137.924 0.683571 138.893 1.65227 138.893 2.79141C138.893 3.93055 137.924 4.84224 136.785 4.84224H125.22V38.5689C125.22 39.8221 124.194 40.8478 122.941 40.8478C121.687 40.8478 120.662 39.8221 120.662 38.5689V4.84224Z" fill="var(--fill-0, #3A3534)"/>
<path id="Vector_5" d="M145.786 20.7375V20.6235C145.786 9.34303 154.217 6.2874e-07 165.953 6.2874e-07C172.391 6.2874e-07 176.493 2.10784 180.196 5.18438C180.652 5.58289 181.107 6.20946 181.107 7.0071C181.107 8.20325 180.025 9.229 178.828 9.229C178.202 9.229 177.689 8.94452 177.347 8.71644C174.271 5.98201 170.796 4.15866 165.896 4.15866C157.066 4.15866 150.457 11.3368 150.457 20.5094V20.6235C150.457 29.8525 157.123 37.0877 165.896 37.0877C170.853 37.0877 174.328 35.3783 177.746 32.2454C178.088 31.9033 178.601 31.6182 179.171 31.6182C180.31 31.6182 181.335 32.6439 181.335 33.7837C181.335 34.4666 180.993 35.0369 180.595 35.3783C176.664 38.9674 172.334 41.2463 165.782 41.2463C154.274 41.2463 145.786 32.1884 145.786 20.7375Z" fill="var(--fill-0, #3A3534)"/>
<path id="Vector_6" d="M190.393 37.6002L206.572 2.22184C207.143 0.96803 207.997 0.228042 209.421 0.228042H209.649C211.016 0.228042 211.928 0.96803 212.44 2.22184L228.62 37.5432C228.791 37.9423 228.905 38.3408 228.905 38.6829C228.905 39.8791 227.936 40.8478 226.74 40.8478C225.658 40.8478 224.917 40.1071 224.518 39.1955L220.36 30.0235H198.483L194.324 39.3095C193.925 40.2782 193.185 40.8478 192.159 40.8478C191.02 40.8478 190.108 39.9361 190.108 38.797C190.108 38.4548 190.165 38.0563 190.393 37.6002ZM218.593 25.9212L209.421 5.52583L200.249 25.9212H218.593Z" fill="var(--fill-0, #3A3534)"/>
<path id="Vector_7" d="M240.755 2.96247C240.755 1.70931 241.78 0.683571 242.977 0.683571H257.903C262.802 0.683571 266.734 2.16482 269.24 4.6718C271.177 6.60858 272.316 9.40002 272.316 12.5336V12.647C272.316 19.1992 267.873 23.0158 261.663 24.2125L271.576 36.9736C272.031 37.4861 272.316 37.9993 272.316 38.6259C272.316 39.8221 271.177 40.8478 270.038 40.8478C269.126 40.8478 268.442 40.3346 267.93 39.6516L256.706 25.0672H245.255V38.5689C245.255 39.8221 244.23 40.8478 242.976 40.8478C241.78 40.8478 240.755 39.8221 240.755 38.5689L240.755 2.96247ZM257.504 21.0219C263.486 21.0219 267.759 17.9454 267.759 12.818V12.704C267.759 7.80472 263.999 4.84222 257.561 4.84222H245.255V21.0219H257.504Z" fill="var(--fill-0, #3A3534)"/>
<path id="Vector_8" d="M285.191 2.96247C285.191 1.70931 286.217 0.683571 287.413 0.683571H299.035C311.568 0.683571 320.228 9.28599 320.228 20.5094V20.6234C320.228 31.8462 311.568 40.5627 299.035 40.5627H287.413C286.217 40.5627 285.191 39.5376 285.191 38.2844V2.96247ZM299.035 36.404C309.118 36.404 315.557 29.5674 315.557 20.7375V20.6235C315.557 11.793 309.118 4.84224 299.035 4.84224H289.692V36.404H299.035Z" fill="var(--fill-0, #3A3534)"/>
</g>
</svg>
