<svg overflow="visible" style="display: block;" viewBox="0 0 284 44.0898" fill="none" xmlns="http://www.w3.org/2000/svg">
<g id="image 6 [Vectorized]">
<path id="Union" d="M261.169 1.24495C262.133 1.30326 280.585 11.2344 281.734 12.5164C279.466 14.8376 272.462 17.7373 269.437 19.6746C268.3 20.4036 267.218 20.7382 266.081 21.7694C266.376 21.8826 266.671 22.006 266.953 22.1512C268.253 22.8228 281.015 29.7016 281.15 30.1639C281.212 30.3774 281.3 30.9584 281.188 31.1414C280.926 31.5602 262.968 41.5284 261.883 41.8114C259.762 41.959 258.792 41.0941 256.998 40.119L250.813 36.7254C248.787 35.6161 242.395 32.4495 240.887 31.1659C240.787 30.8972 240.747 30.78 240.792 30.4881C240.821 30.3045 240.928 29.9784 241.053 29.8367C241.628 29.1898 253.867 23.1428 255.792 21.7528C254.871 20.7662 253.544 20.2635 252.583 19.6444C250.509 18.3095 241.702 14.1339 240.38 12.5672C241.477 11.3293 243.693 10.3448 245.191 9.51644C247.831 8.02297 250.494 6.56986 253.177 5.15901C255.231 4.06133 258.637 2.02973 260.652 1.26155C260.824 1.24034 260.998 1.23535 261.169 1.24495ZM27.8423 9.09066C30.0124 9.23729 32.2294 8.94508 34.3892 9.23909C43.1375 10.4301 44.5695 16.3106 44.1246 23.8455C43.5218 34.1158 36.5487 37.2716 27.231 36.7117C14.797 35.9647 13.3467 27.3732 13.8795 17.0028C13.9617 15.4031 13.6383 11.0021 14.1773 9.80648C14.5394 9.51245 14.4401 9.59898 14.9937 9.55843L15.2144 9.50862C16.3931 9.26816 18.6447 9.17916 19.6861 9.4139C19.8244 11.9953 19.5725 14.701 19.6461 17.2948C19.7133 19.6617 19.4542 22.3903 19.8492 24.7049C20.189 22.5328 19.7161 10.6484 20.0416 9.89925C20.1436 10.7778 20.0765 12.8608 20.0699 13.825L20.0406 21.2274C20.0472 24.0871 20.0125 27.4166 22.6119 29.285C27.5917 32.864 37.8446 31.5407 37.9664 23.9657C38.0112 21.1823 38.8385 17.8771 36.272 15.9451C34.2087 13.9461 27.9215 15.4458 27.4371 14.5897C27.6487 13.2384 27.4114 10.8234 27.6119 9.24593L27.8423 9.09066ZM177.621 9.07991C177.74 11.8516 177.373 17.8745 177.813 20.2918L177.805 19.1287C177.868 19.811 177.844 21.82 178.717 21.9041C183.015 22.3172 185.798 21.9374 186.903 17.3465L186.895 17.4442C187.304 15.2763 187.177 11.5489 187.187 9.18734C188.183 9.10301 192.564 9.05894 193.341 9.24007C194.612 10.3931 193.763 18.7898 192.919 20.4119C191.953 22.4151 190.119 23.359 188.509 24.5399C186.671 25.8878 179.981 24.4679 179.424 25.7586C179.433 25.9082 179.474 26.1863 179.544 26.3094C182.497 31.5913 191.35 32.0116 196.349 29.827C199.045 28.6487 200.374 26.8839 201.351 24.3729C203.057 21.7877 202.506 12.5086 202.49 9.15316C204.288 9.07676 206.394 9.13853 208.253 9.09261C208.366 11.3014 208.327 13.7871 208.343 16.0672C208.384 21.5439 208.71 25.8877 205.442 30.6463C203.322 33.7326 199.87 35.3627 196.322 36.2342C195.755 36.374 194.651 36.2751 194.034 36.3612C193.571 36.418 193.146 36.6376 192.673 36.6707C183.86 37.2894 174.868 35.092 172.556 25.367C172.397 24.696 172.541 24.1643 172.438 23.5164C172.401 23.9465 172.459 24.2193 172.211 24.491C172.188 24.4302 172.17 24.3685 172.153 24.3065C171.812 23.1335 171.627 9.89502 172.024 9.17562C173.631 9.07763 175.932 9.12797 177.621 9.07991ZM106.074 9.20687C108.688 9.08005 111.844 9.09235 114.476 9.15609C117.134 11.9142 119.499 14.705 121.989 17.6014C122.662 18.3842 124.431 20.8275 125.283 20.7371C130.556 20.177 129.564 12.7985 129.949 9.15999C131.83 9.14652 134.718 9.04237 136.541 9.18636C136.947 15.6782 136.1 22.7734 128.028 23.2821C127.779 23.2979 127.529 23.3065 127.279 23.3075C128.215 25.5723 137.297 34.5712 137.398 35.8465C136.87 36.4269 131.005 36.2088 129.949 36.2078C128.858 35.3187 127.141 33.4566 126.25 32.3446C124.043 29.591 121.561 27.1509 119.335 24.411C118.204 23.0043 117.085 23.2689 116.007 24.5604C114.141 26.9646 113.847 30.2829 113.714 33.2166C113.704 33.4802 113.721 34.7609 113.664 34.8582C113.609 34.3405 113.555 33.657 113.461 33.159C113.474 33.8033 113.589 35.8574 113.197 36.2791C111.616 36.0025 108.735 36.489 107.063 36.0916C106.855 36.0421 106.812 35.7179 106.735 35.4784C106.534 34.7922 106.639 32.9554 106.757 32.2323C106.865 32.3474 106.925 34.3652 106.96 34.7186C107.071 32.9572 106.949 31.291 107.266 29.5428C108.195 24.4292 110.611 20.9193 116.125 20.7176C114.005 18.1015 111.861 15.6048 109.609 13.1034C108.81 12.2163 106.925 9.87437 106.074 9.20687ZM149.412 9.12581C154.384 9.12278 159.212 8.872 163.193 12.6014C165.33 14.6039 166.814 19.1684 166.554 21.9168C166.346 24.1229 166.829 34.5471 166.296 35.9149C165.653 36.3903 161.79 36.2059 160.722 36.1893C160.817 34.0259 160.863 31.7215 160.822 29.5555C160.762 26.5206 160.983 23.2401 160.732 20.2274C160.452 20.954 160.715 33.3336 160.527 35.2225C160.395 34.433 160.437 31.8199 160.436 30.8807L160.428 22.3211C160.424 19.8239 160.766 17.5647 158.466 15.9256C157.773 15.4353 156.978 15.1061 156.142 14.9627C154.789 14.7218 153.161 14.8485 151.738 14.8338C148.693 14.8026 145.593 14.932 142.55 14.8143C142.305 14.8046 142.232 14.5934 142.193 14.3973C142.017 13.4456 142.078 11.9788 142.093 10.9842C142.117 10.3538 142.124 9.76137 142.224 9.13753L149.412 9.12581ZM55.6832 9.13167C60.4592 9.12789 65.3931 8.95017 69.0601 12.5789C72.8228 16.3024 72.4031 20.9567 72.3951 25.741L72.3824 36.1991C70.4436 36.2129 68.5046 36.2083 66.566 36.1864C66.6176 32.687 66.6402 29.187 66.6334 25.6873C66.6375 23.6636 66.7638 21.1924 66.4459 19.2371C66.0207 17.2141 64.0651 15.078 61.9517 14.9481C57.4477 14.6712 52.9128 14.9795 48.4136 14.825C48.2275 13.4888 48.3034 10.6038 48.3033 9.14827C48.3837 9.14562 48.4641 9.14379 48.5445 9.14339L55.6832 9.13167ZM85.9254 9.12581C91.1168 9.13098 95.7168 8.99302 99.8736 12.9149C102.031 15.0395 103.464 19.0364 103.387 22.0623C103.079 34.2813 94.8663 36.1661 84.7632 36.2059L78.7711 36.1912C78.8384 34.166 78.8176 32.4355 78.7642 30.4119C80.5556 30.3288 83.276 30.389 85.023 30.4383C91.1949 30.6011 97.2435 30.7805 97.3687 22.7938C97.5007 14.3737 94.1674 14.8204 87.2779 14.8407L78.8209 14.8387C78.8247 12.9351 78.8074 11.031 78.7681 9.12776L85.9254 9.12581ZM214.247 9.15511C215.974 9.05289 218.623 9.13042 220.447 9.10921C220.552 11.4352 220.462 14.4125 220.467 16.8065C220.473 19.1085 220.555 22.2359 220.421 24.4578C219.614 24.6789 215.008 24.7061 214.358 24.4422C214.181 23.3036 214.305 21.1003 214.283 19.8817C214.216 16.3925 214.434 12.6213 214.247 9.15511ZM27.9283 14.0096H27.9293H27.9283ZM142.568 11.0272H142.569H142.568ZM19.1021 9.70882C18.925 9.75456 18.7212 9.78835 18.5006 9.81136L18.8179 9.76937C18.9186 9.75242 19.0136 9.73168 19.1021 9.70882Z" fill="var(--fill-0, #212529)"/>
</g>
</svg>
