<svg overflow="visible" style="display: block;" viewBox="0 0 198.25 52" fill="none" xmlns="http://www.w3.org/2000/svg">
<g id="image 1 [Vectorized]">
<path id="Vector" d="M132.391 15.9223C132.398 15.9213 132.404 15.9204 132.41 15.9196C138.124 15.6387 145.75 16.3637 150.44 19.7983C151.773 20.8634 152.804 22.2938 152.995 24.004C153.296 26.6894 151.49 28.7839 149.498 30.3414C144.952 33.8939 138.997 35.4379 133.378 36.2627C132.142 36.4442 130.929 36.4671 129.69 36.5933L129.668 36.5953C124.108 37.0802 115.855 36.0722 111.317 32.5168C108.572 30.3665 108.213 26.6395 110.615 24.0234C115.989 18.1735 124.836 16.5454 132.391 15.9223ZM129.691 30.4129C133.454 30.1316 138.344 29.4402 141.147 26.6497C141.919 25.8807 142.01 24.5977 141.088 23.9167C138.952 22.34 135.004 21.8964 132.481 22.1027C132.421 22.1076 132.36 22.1137 132.3 22.1207C128.621 22.4146 123.623 23.0551 120.87 25.8888C120.071 26.711 120.013 27.9187 120.961 28.6306C123.021 30.1412 127.003 30.6771 129.431 30.4412C129.518 30.4328 129.605 30.4234 129.691 30.4129Z" fill="var(--fill-0, #F7414B)" fill-opacity="0.3"/>
<path id="Vector_2" d="M56.1188 15.5189C57.9719 15.4203 60.6044 15.5003 62.5409 15.5006L74.9899 15.4994L85.6652 15.4926C87.4397 15.4918 92.1858 15.2597 93.0208 16.0763C96.3073 19.2909 89.681 27.7818 88.0321 30.8732C87.2834 32.2768 86.0505 34.2687 85.3566 34.9513C82.8904 37.3774 78.1337 34.5954 79.619 31.091C80.7514 28.8107 82.5305 25.3058 83.9706 23.2894L84.4267 22.5609C82.4115 22.7548 79.2553 22.6695 77.1634 22.6691C72.9762 22.6972 68.789 22.6711 64.6025 22.591C63.5643 26.2625 60.5897 32.1366 57.865 34.9563C56.6119 36.2531 53.6965 35.6388 51.9827 35.7445C51.0553 35.8017 49.8611 35.773 48.8942 35.7665C45.7815 35.7457 44.9776 31.2579 47.0694 29.4674C48.4057 28.3407 51.607 28.6518 53.3382 28.804C54.2876 27.292 55.4949 24.3159 56.5588 22.4789C56.0107 22.4109 55.2715 22.3237 54.8366 21.9976C52.3439 20.1286 52.8869 16.1333 56.1188 15.5189Z" fill="var(--fill-0, #F7414B)" fill-opacity="0.3"/>
<path id="Vector_3" d="M106.032 41.9226C107.896 42.0141 110.387 41.9324 112.322 41.9316L124.637 41.9297L162.378 41.927L173.651 41.9269C175.681 41.9272 177.713 41.9033 179.744 41.9676C180.929 42.0051 181.973 43.2196 182.17 44.3445C182.423 45.7849 182.226 46.6865 181.445 47.8859C181.056 48.1362 180.565 48.4765 180.099 48.4882C177.596 48.551 175.023 48.5237 172.526 48.5213L157.616 48.5155C140.493 48.5175 123.121 48.3583 106.017 48.5424C105.997 46.3358 106.002 44.129 106.032 41.9226Z" fill="var(--fill-0, #F7414B)" fill-opacity="0.3"/>
<path id="Vector_4" d="M189.233 13.8741C190.914 13.6818 192.433 14.038 193.356 15.5666C194.086 16.7766 193.956 18.6114 192.992 19.6583C190.817 22.0208 188.489 24.2184 186.241 26.5097C185.779 26.98 184.983 27.8462 184.458 28.1572C185.852 29.0127 187.432 30.1297 187.602 31.8986C187.697 32.8867 187.45 33.7852 186.819 34.5577C186.234 35.2867 185.38 35.7483 184.45 35.8377C182.84 35.9902 181.821 35.22 180.655 34.2609C176.103 30.5147 171.337 26.9862 166.792 23.2376C166.331 24.0515 164.786 25.935 164.155 26.7529L159.492 32.8803L158.479 34.2215C157.707 35.2336 156.872 36.1471 155.538 36.3177C153.582 36.5686 151.654 35.1004 151.412 33.1353C151.359 32.7189 151.384 31.8292 151.605 31.4634C152.583 29.8489 153.813 28.3678 154.94 26.849C156.886 24.3016 158.668 21.6549 160.669 19.1464C162.078 17.4962 163.566 15.0826 165.906 14.7985C167.631 14.5889 168.88 15.294 170.222 16.2413C173.348 18.4486 176.081 21.1601 179.069 23.5257C179.346 23.1887 179.696 22.8209 180.01 22.509C182.707 19.8267 185.323 17.0275 188.124 14.4566C188.363 14.2368 188.92 14.0065 189.233 13.8741Z" fill="var(--fill-0, #F7414B)" fill-opacity="0.3"/>
<path id="Vector_5" d="M43.8431 13.8627C44.1229 13.8408 44.4033 13.8253 44.6839 13.816C47.8492 13.7326 49.5127 17.1784 47.6078 19.6427C46.8972 20.5621 45.7812 21.5416 44.9458 22.3759C42.9831 24.2978 41.0413 26.2408 39.1208 28.2049C39.4719 28.4374 39.9192 28.8302 40.2694 29.0451C43.2897 30.8824 42.5765 35.3573 39.0075 35.854C37.0416 36.1277 35.7759 34.6427 34.3559 33.5676C33.5294 32.942 32.7216 32.2529 31.9086 31.6081C28.3791 28.838 24.8669 26.0459 21.3723 23.2318C20.9216 24.0381 19.8817 25.2272 19.3045 26.0122C17.6162 28.3088 15.7499 30.5483 14.0606 32.8369C13.6206 33.4046 13.1557 33.9833 12.7309 34.5607C11.4003 36.3691 9.17164 37.0014 7.31134 35.4774C6.56162 34.8681 6.09388 33.9783 6.01692 33.0151C5.97865 32.5838 6.04742 31.708 6.29981 31.3534C9.86758 26.34 13.4935 21.1618 17.53 16.517C20.8805 12.6618 24.7684 16.0086 27.6702 18.464C29.6785 20.1633 31.6368 21.8909 33.645 23.5753C33.8983 23.2406 34.1688 22.9634 34.4646 22.6665C37.0833 20.0376 39.6692 17.3582 42.3692 14.8141C42.8087 14.3999 43.2884 14.0989 43.8431 13.8627Z" fill="var(--fill-0, #F7414B)" fill-opacity="0.3"/>
<path id="Vector_6" d="M107.234 14.1537C108.448 14.142 109.47 14.4038 110.409 15.2189C111.302 15.9569 111.751 17.7428 111.233 18.8052C110.038 21.2584 108.595 23.746 107.276 26.14L104.038 31.985C102.672 34.4237 102.259 36.2525 99.124 36.3409C97.7572 36.0326 96.4682 35.2747 96.0815 33.8384C95.6016 32.0557 96.4783 30.7174 97.3071 29.2426C98.6284 29.3366 99.6613 29.3442 100.759 28.3949C101.472 27.7684 101.904 26.8813 101.956 25.9333C102.027 24.8051 101.603 23.8157 100.872 22.9803C101.862 20.9711 103.044 18.8802 104.119 16.9045C104.934 15.4075 105.59 14.6002 107.234 14.1537Z" fill="var(--fill-0, #F7414B)" fill-opacity="0.3"/>
<path id="Vector_7" d="M150.716 3.2621C157.355 3.56825 156.347 2.54172 156.324 9.69321C154.989 9.67984 152.08 9.58978 150.808 9.7454C150.648 7.91097 150.72 5.15986 150.716 3.2621ZM151.896 8.60086C152.943 8.5995 154.146 8.57222 155.18 8.60439C155.181 7.17801 155.198 5.70619 155.159 4.28445C154.064 4.26165 152.968 4.25459 151.872 4.26327L151.896 8.60086Z" fill="var(--fill-0, #F7414B)" fill-opacity="0.3"/>
<path id="Vector_8" d="M94.654 41.9356L100.763 41.9163C100.672 43.4947 100.432 46.2221 99.8191 47.6359C98.9101 48.7231 97.0728 48.935 96.0473 48.098C94.8271 47.1017 94.824 43.4535 94.654 41.9356ZM98.8481 46.9834C99.2905 45.8983 99.368 44.2651 99.4135 43.0842C98.3322 43.0832 96.9954 43.1189 95.9354 43.0771C96.0715 44.3453 96.0784 46.5128 97.0196 47.4325C97.5423 47.9442 98.43 47.4346 98.8481 46.9834Z" fill="var(--fill-0, #F7414B)" fill-opacity="0.3"/>
<path id="Vector_9" d="M97.4339 23.1334C98.8443 22.6373 100.388 23.3862 100.872 24.8007C101.355 26.2153 100.594 27.7532 99.1763 28.2251C97.7746 28.6913 96.2599 27.9406 95.7818 26.543C95.3038 25.1453 96.0414 23.6235 97.4339 23.1334Z" fill="var(--fill-0, #F7414B)" fill-opacity="0.3"/>
<path id="Vector_10" d="M65.2554 41.9288L66.4216 41.9045C66.4275 43.3481 66.3349 46.5957 65.5043 47.7026C65.1561 48.172 64.6317 48.4795 64.0521 48.554C63.3556 48.6504 62.5312 48.5176 61.9612 48.0847C61.6845 47.8773 61.4697 47.5981 61.3401 47.2774C61.0902 46.6526 60.621 42.7669 60.5025 41.9196L61.7031 41.9175C61.9858 43.5164 62.0542 45.2095 62.322 46.8578C64.0281 48.6616 64.978 46.9291 65.02 45.17C65.0347 44.5538 65.1581 43.6617 65.3272 43.0789C64.6956 43.0695 63.9815 43.0986 63.3434 43.1107L63.3577 41.9265L65.2554 41.9288Z" fill="var(--fill-0, #F7414B)" fill-opacity="0.3"/>
<path id="Vector_11" d="M91.7376 41.9267C92.018 41.9148 92.208 41.9262 92.4831 41.9457C92.7267 42.2809 92.2074 46.037 92.1184 46.6674C91.795 48.9598 88.0411 49.2702 87.3952 47.1163C86.948 45.6248 86.832 43.5014 86.7136 41.9213C86.8674 41.917 87.6576 41.8738 87.7147 42.0089C88.4112 43.6415 87.7962 45.9665 88.9314 47.4124C89.466 48.0933 90.5462 47.2653 90.9504 46.851C91.1414 45.6056 91.1935 44.3265 91.41 43.0707L89.435 43.0813C89.4279 42.9072 89.4241 42.733 89.4237 42.5587C89.4311 41.5782 90.9894 41.9228 91.7376 41.9267Z" fill="var(--fill-0, #F7414B)" fill-opacity="0.3"/>
<path id="Vector_12" d="M2.42522 41.9244C3.45847 41.9334 4.5996 41.8496 5.61501 41.9105C6.52947 41.9653 6.86626 42.2514 7.40626 42.9157C7.61581 43.6972 7.73649 47.6685 7.5228 48.3555C7.26166 48.5414 6.83177 48.5173 6.49704 48.5303C6.50525 47.025 6.59703 44.542 6.321 43.1702C5.66284 43.0289 4.2142 43.0809 3.48162 43.0876C3.48389 44.409 3.85785 47.046 2.92942 48.0593C2.43841 48.5952 1.73497 48.5396 1.05895 48.5324C0.857267 46.6134 1.74207 47.8502 2.10836 47.2531C2.65965 46.3546 2.41408 43.0316 2.42522 41.9244Z" fill="var(--fill-0, #F7414B)" fill-opacity="0.3"/>
<path id="Vector_13" d="M17.6261 41.9232L18.9181 41.9128C18.7867 43.4396 18.5345 44.3393 17.6572 45.6278C18.0173 46.3064 19.0609 47.788 19.5257 48.4845L18.3225 48.5141C17.3096 47.2581 16.5169 45.9338 15.4561 44.6387C14.4585 46.249 14.6534 46.6996 14.3878 48.4178C14.2304 48.5428 13.6057 48.5367 13.3674 48.5481C13.4474 46.7899 13.6176 45.2711 14.7683 43.8381L12.8232 41.9725L14.2911 41.9241C15.2998 42.9098 16.1698 43.8291 17.0486 44.9309C17.6452 43.6981 17.6374 43.3051 17.6261 41.9232Z" fill="var(--fill-0, #F7414B)" fill-opacity="0.3"/>
<path id="Vector_14" d="M47.7852 41.9286L48.9448 41.9223C49.0504 42.9353 49.0888 43.829 49.2377 44.8636L49.2609 45.3621L49.2625 45.4375C49.3152 47.4468 50.3737 47.5858 52.0608 47.5265C52.3447 47.3665 52.764 47.0553 53.0435 46.86C53.5145 45.7086 53.6108 43.2243 53.7077 41.9306C54.0877 41.9344 54.4962 41.9194 54.8788 41.9125C54.7805 43.2301 54.7376 46.5116 53.7305 47.6465C52.6025 48.9175 49.6764 49.0176 48.7061 47.4649C48.0035 46.3403 47.8769 43.4328 47.7852 41.9286Z" fill="var(--fill-0, #F7414B)" fill-opacity="0.3"/>
<path id="Vector_15" d="M181.635 3.27438C182.781 3.25972 185.033 3.12213 186.057 3.45475C186.879 3.72182 186.877 9.09584 186.541 9.63103C186.449 9.64026 185.977 9.70337 185.913 9.62542C185.205 8.77332 186.215 4.78317 185.284 4.25714L182.785 4.26774C182.789 5.60773 182.829 7.22736 182.747 8.54043C181.929 9.7637 181.539 9.69689 180.16 9.69592C180.142 9.36514 180.1 9.07758 180.223 8.77024C180.341 8.68971 180.388 8.61818 180.528 8.64001C181.838 8.84453 181.707 7.44288 181.699 6.51312C181.69 5.47326 181.71 4.34399 181.635 3.27438Z" fill="var(--fill-0, #F7414B)" fill-opacity="0.3"/>
<path id="Vector_16" d="M170.479 3.30688C171.754 3.22405 173.773 3.13096 174.981 3.46523C176.137 3.78494 175.884 6.92246 175.905 7.85373C175.917 8.39579 176.036 9.56854 175.496 9.75441C175.345 9.72836 175.217 9.69408 175.104 9.58507C174.661 9.16166 174.847 5.73267 174.849 4.91437C174.825 4.74805 174.709 4.61252 174.611 4.47166C174.055 4.09124 172.272 4.26037 171.535 4.27781C171.559 6.05541 171.541 7.87261 171.544 9.65359C171.288 9.62829 170.783 9.65473 170.506 9.66212C170.547 7.62499 170.517 5.34743 170.479 3.30688Z" fill="var(--fill-0, #F7414B)" fill-opacity="0.3"/>
<path id="Vector_17" d="M40.9551 39.6588L42.0934 39.7645C42.0977 40.5235 42.1079 41.1609 42.0303 41.9158L45.7972 41.9184C45.7593 43.3819 45.2454 46.348 44.6552 47.6732C44.3099 47.9527 43.8965 48.1698 43.5082 48.3887C42.9964 48.519 42.767 48.6326 42.3244 48.3793C41.764 47.1222 43.3075 47.3708 43.5351 47.0763C44.2048 46.2095 44.298 44.2124 44.509 43.0831C43.334 43.0647 42.1253 43.0761 40.9473 43.0729L40.9551 39.6588Z" fill="var(--fill-0, #F7414B)" fill-opacity="0.3"/>
<path id="Vector_18" d="M160.722 0.980728L161.804 1.01044C161.781 1.71275 161.808 2.5551 161.812 3.26805C162.995 3.23752 164.333 3.27281 165.527 3.27836C165.364 4.70429 165.183 6.44223 164.775 7.80676C164.496 8.73912 164.024 9.20944 163.18 9.62811L162.07 9.76147L162.091 8.71819C162.398 8.63507 162.863 8.51612 163.115 8.32672C163.996 7.66351 164.063 5.40032 164.198 4.26112L160.775 4.25769C160.686 3.28717 160.697 1.94036 160.722 0.980728Z" fill="var(--fill-0, #F7414B)" fill-opacity="0.3"/>
<path id="Vector_19" d="M74.6413 41.934L79.8524 41.9178C79.8644 42.2432 79.9155 42.6775 79.7788 42.9572C79.4305 43.1462 79.2266 43.0774 78.7925 43.0749L78.8029 47.7635C78.8114 48.0265 78.8105 48.1059 78.7626 48.3635C78.4798 48.5714 78.173 48.5128 77.7777 48.527C77.8112 46.6828 77.7024 44.9849 77.8066 43.0803L74.6281 43.1034L74.6413 41.934Z" fill="var(--fill-0, #F7414B)" fill-opacity="0.3"/>
<path id="Vector_20" d="M81.9069 41.9321C82.0914 41.9283 82.2759 41.9265 82.4604 41.9269C85.4068 41.9381 84.6417 46.3796 84.5982 48.4968L82.7894 48.5134C82.4575 48.5236 82.0167 48.5718 81.7304 48.4324C81.5136 48.2039 81.5354 47.6899 81.5153 47.3511L83.4457 47.3409C83.5299 46.1449 83.5748 44.2302 83.3007 43.1039L81.8953 43.0602L81.9069 41.9321Z" fill="var(--fill-0, #F7414B)" fill-opacity="0.3"/>
<path id="Vector_21" d="M24.4624 41.9337C26.7153 41.8955 28.8714 41.5369 28.5879 44.5765C28.4833 45.6965 28.5526 47.3447 28.5559 48.5004C28.2855 48.5082 28.0151 48.5223 27.7475 48.4758C27.03 48.3512 27.8125 44.0655 27.2221 43.2302C26.8338 42.9428 25.0087 43.0847 24.4252 43.1019L24.4624 41.9337Z" fill="var(--fill-0, #F7414B)" fill-opacity="0.3"/>
<path id="Vector_22" d="M68.4559 41.9186C69.987 41.9028 72.6812 41.5496 72.6299 43.7618C72.5937 45.3262 72.5872 46.9026 72.6164 48.4672C72.5081 48.4768 71.7052 48.5405 71.659 48.4352C71.1559 47.2914 72.0117 44.1865 71.2739 43.2374C70.876 42.9265 69.062 43.0938 68.4649 43.1188L68.4559 41.9186Z" fill="var(--fill-0, #F7414B)" fill-opacity="0.3"/>
<path id="Vector_23" d="M30.935 41.9387C32.6235 41.9019 35.2522 41.5539 35.2048 44.099C35.1797 45.4429 35.2735 46.2097 34.7445 47.455C34.2635 47.5286 34.1077 47.4741 33.6332 47.3491C34.1899 46.7781 34.1884 43.6318 33.7723 43.2127C33.1923 42.966 31.6485 43.0765 30.9411 43.0992L30.935 41.9387Z" fill="var(--fill-0, #F7414B)" fill-opacity="0.3"/>
<path id="Vector_24" d="M191.715 3.2909C193.315 3.1731 195.866 2.73413 195.846 5.14401C195.841 5.95078 195.922 7.51768 195.675 8.23642L195.545 8.20421C195.362 8.45192 195.187 8.48111 194.896 8.53792L194.733 8.37441L194.754 7.93879C194.768 7.3393 194.772 6.69038 194.793 6.09623C194.841 4.77402 194.757 4.22798 193.266 4.23285C192.757 4.23694 192.25 4.24667 191.743 4.26202L191.715 3.2909Z" fill="var(--fill-0, #F7414B)" fill-opacity="0.3"/>
<path id="Vector_25" d="M9.97939 41.9104C10.2905 41.9306 10.8117 41.9033 11.1393 41.896L11.1297 48.4485C10.7867 48.4263 10.3478 48.4392 9.99662 48.4401C9.9457 46.3005 9.979 44.0575 9.97939 41.9104Z" fill="var(--fill-0, #F7414B)" fill-opacity="0.3"/>
<path id="Vector_26" d="M167.672 3.20245C167.92 3.20755 168.195 3.1821 168.392 3.32049C168.504 3.99254 168.505 9.07116 168.382 9.62346L168.161 9.72468C167.909 9.70696 167.706 9.67635 167.459 9.6384L167.383 9.53111C167.32 9.00808 167.243 3.49567 167.332 3.29145L167.672 3.20245Z" fill="var(--fill-0, #F7414B)" fill-opacity="0.3"/>
<path id="Vector_27" d="M194.754 7.93879L194.733 8.37441L194.896 8.53792C195.187 8.48111 195.362 8.45192 195.545 8.20421L195.675 8.23642C195.638 8.88999 196.039 8.27804 196.6 8.9775C196.647 9.25282 196.553 9.39001 196.432 9.63806C195.963 9.71926 191.831 9.71916 191.45 9.62066C191.376 9.21621 191.386 9.09272 191.418 8.68162C191.938 8.36616 194.058 8.98695 194.541 8.24516C194.608 8.1406 194.686 8.04402 194.754 7.93879Z" fill="var(--fill-0, #F7414B)" fill-opacity="0.3"/>
<path id="Vector_28" d="M30.6648 47.3554L33.6332 47.3492C34.1077 47.4741 34.2635 47.5286 34.7445 47.455C35.106 47.4187 35.4073 47.3624 35.7051 47.5226C35.846 47.7684 35.7772 48.2166 35.7567 48.5195C34.0617 48.5281 32.3665 48.5198 30.6716 48.4947L30.6648 47.3554Z" fill="var(--fill-0, #F7414B)" fill-opacity="0.3"/>
<path id="Vector_29" d="M50.8045 41.9254L51.9482 41.8914C51.9201 43.2004 51.9892 45.7106 50.061 45.5938C49.7017 45.5721 49.5664 45.5721 49.2609 45.3621L49.2377 44.8636C50.2074 44.8094 50.2419 44.8032 50.7799 44.0083C50.7888 43.3185 50.8058 42.6137 50.8045 41.9254Z" fill="var(--fill-0, #F7414B)" fill-opacity="0.3"/>
<path id="Vector_30" d="M21.2676 41.9275L22.3485 41.8956L22.3562 45.8145C21.9765 45.8226 21.7306 45.847 21.3666 45.7339C21.2471 45.2713 21.2733 42.61 21.2676 41.9275Z" fill="var(--fill-0, #F7414B)" fill-opacity="0.3"/>
<path id="Vector_31" d="M188.567 3.26817L189.716 3.26115C189.771 4.3832 189.758 5.71029 189.77 6.84678L188.631 6.8885C188.643 5.62793 188.659 4.52657 188.567 3.26817Z" fill="var(--fill-0, #F7414B)" fill-opacity="0.3"/>
<path id="Vector_32" d="M158.279 3.27982C158.629 3.25603 158.854 3.22058 159.191 3.32674C159.341 3.60439 159.311 6.35974 159.314 6.87308L158.282 6.88833C158.315 5.71135 158.286 4.46219 158.279 3.27982Z" fill="var(--fill-0, #F7414B)" fill-opacity="0.3"/>
</g>
</svg>
