<svg overflow="visible" style="display: block;" viewBox="0 0 112.38 25.3907" fill="none" xmlns="http://www.w3.org/2000/svg">
<g id="XTRA red">
<circle id="Ellipse 7" cx="3.47351" cy="21.9156" r="2.77881" fill="var(--fill-0, #F7414B)" stroke="var(--stroke-0, #3A3534)" stroke-width="1.3894" stroke-linecap="round" stroke-linejoin="round"/>
<g id="Vector">
<path d="M22.0453 18.2593L16.9725 23.3321C15.1558 25.1488 12.2103 25.1488 10.3937 23.3321C8.57695 21.5154 8.57695 18.5699 10.3936 16.7532L15.4913 11.6555L14.3734 12.7752L14.0253 12.4271L10.3936 8.79548C8.57694 6.97878 8.57694 4.03333 10.3936 2.21663C12.2103 0.399937 15.1558 0.39993 16.9725 2.21663L20.6674 5.91156L20.9628 6.20692L19.7966 7.35031L24.9302 2.21663C26.7469 0.399935 29.6924 0.399935 31.5091 2.21663C33.3258 4.03333 33.3258 6.97879 31.5091 8.79548L26.4003 13.9043L27.5662 12.8104L28.0093 13.2534L31.5091 16.7532C33.3258 18.5699 33.3258 21.5154 31.5091 23.3321C29.6924 25.1488 26.7469 25.1488 24.9302 23.3321L21.3355 19.7373L20.9663 19.3681" fill="var(--fill-0, #F7414B)"/>
<path d="M22.0453 18.2593L16.9725 23.3321C15.1558 25.1488 12.2103 25.1488 10.3937 23.3321C8.57695 21.5154 8.57695 18.5699 10.3936 16.7532L15.4913 11.6555L14.3734 12.7752L14.0253 12.4271L10.3936 8.79548C8.57694 6.97878 8.57694 4.03333 10.3936 2.21663C12.2103 0.399937 15.1558 0.39993 16.9725 2.21663L20.6674 5.91156L20.9628 6.20692L19.7966 7.35031L24.9302 2.21663C26.7469 0.399935 29.6924 0.399935 31.5091 2.21663C33.3258 4.03333 33.3258 6.97879 31.5091 8.79548L26.4003 13.9043L27.5662 12.8104L28.0093 13.2534L31.5091 16.7532C33.3258 18.5699 33.3258 21.5154 31.5091 23.3321C29.6924 25.1488 26.7469 25.1488 24.9302 23.3321L21.3355 19.7373L20.9663 19.3681" stroke="var(--stroke-0, #3A3534)" stroke-width="1.3894" stroke-linecap="round" stroke-linejoin="round"/>
</g>
<g id="Vector_2">
<path d="M44.9675 10.2248H40.0395C37.6155 10.2248 35.6505 8.13174 35.6505 5.54984C35.6505 2.96794 37.6155 0.874884 40.0395 0.874884H55.5588C57.9828 0.874884 59.9477 2.96793 59.9477 5.54983C59.9477 8.13173 57.9828 10.2248 55.5588 10.2248H51.4763L52.4475 10.2406L52.4741 20.0196C52.4741 22.6015 50.381 24.6945 47.7991 24.6945C45.2172 24.6945 43.1242 22.6015 43.1242 20.0196V10.2514" fill="var(--fill-0, #F7414B)"/>
<path d="M44.9675 10.2248H40.0395C37.6155 10.2248 35.6505 8.13174 35.6505 5.54984C35.6505 2.96794 37.6155 0.874884 40.0395 0.874884H55.5588C57.9828 0.874884 59.9477 2.96793 59.9477 5.54983C59.9477 8.13173 57.9828 10.2248 55.5588 10.2248H51.4763L52.4475 10.2406L52.4741 20.0196C52.4741 22.6015 50.381 24.6945 47.7991 24.6945C45.2172 24.6945 43.1242 22.6015 43.1242 20.0196V10.2514" stroke="var(--stroke-0, #3A3534)" stroke-width="1.3894" stroke-linecap="round" stroke-linejoin="round"/>
</g>
<g id="Vector_3">
<path d="M67.1575 13.6732H75.1285C78.7183 13.6732 81.7483 10.8832 81.7483 7.29343C81.7483 3.7037 78.8383 0.793652 75.2485 0.793652H68.4425C67.5802 0.788228 66.7411 0.754724 65.9138 1.03843C65.2274 1.27381 64.6 1.67141 64.0922 2.18949C63.5839 2.70811 63.1988 3.34419 62.9775 4.03599C62.8303 4.49611 62.7561 4.97865 62.7561 5.46166L62.7266 19.9951C62.7266 22.577 64.8197 24.67 67.4016 24.67C69.9835 24.67 72.0765 22.577 72.0765 19.9951L72.106 13.7595L72.0958 17.8096L76.1048 22.8982C77.6947 24.9325 80.6327 25.2927 82.667 23.7028C84.7013 22.1129 85.0615 19.1749 83.4716 17.1406L79.8206 12.5791" fill="var(--fill-0, #F7414B)"/>
<path d="M67.1575 13.6732H75.1285C78.7183 13.6732 81.7483 10.8832 81.7483 7.29343C81.7483 3.7037 78.8383 0.793652 75.2485 0.793652H68.4425C67.5802 0.788228 66.7411 0.754724 65.9138 1.03843C65.2274 1.27381 64.6 1.67141 64.0922 2.18949C63.5839 2.70811 63.1988 3.34419 62.9775 4.03599C62.8303 4.49611 62.7561 4.97865 62.7561 5.46166L62.7266 19.9951C62.7266 22.577 64.8197 24.67 67.4016 24.67C69.9835 24.67 72.0765 22.577 72.0765 19.9951L72.106 13.7595L72.0958 17.8096L76.1048 22.8982C77.6947 24.9325 80.6327 25.2927 82.667 23.7028C84.7013 22.1129 85.0615 19.1749 83.4716 17.1406L79.8206 12.5791" stroke="var(--stroke-0, #3A3534)" stroke-width="1.3894" stroke-linecap="round" stroke-linejoin="round"/>
</g>
<g id="Vector_4">
<path d="M99.9488 0.993881C99.2936 0.710703 98.5807 0.647992 97.9059 0.724983C96.3124 0.90679 94.8274 2.00637 94.2214 3.61555L87.5275 18.6295C86.6649 20.9201 87.8226 23.4763 90.1132 24.3389C92.4038 25.2016 94.7249 23.9798 95.8227 21.7533L100.571 11.9069L99.0902 14.9423L103.259 22.0979C104.431 24.3892 107.147 25.3433 109.327 24.229C111.506 23.1147 112.323 20.3539 111.151 18.0626L102.547 3.34569C101.452 1.10868 98.7677 0.0692515 96.5146 1.13075" fill="var(--fill-0, #F7414B)"/>
<path d="M99.9488 0.993881C99.2936 0.710703 98.5807 0.647992 97.9059 0.724983C96.3124 0.90679 94.8274 2.00637 94.2214 3.61555L87.5275 18.6295C86.6649 20.9201 87.8226 23.4763 90.1132 24.3389C92.4038 25.2016 94.7249 23.9798 95.8227 21.7533L100.571 11.9069L99.0902 14.9423L103.259 22.0979C104.431 24.3892 107.147 25.3433 109.327 24.229C111.506 23.1147 112.323 20.3539 111.151 18.0626L102.547 3.34569C101.452 1.10868 98.7677 0.0692515 96.5146 1.13075" stroke="var(--stroke-0, #3A3534)" stroke-width="1.3894" stroke-linecap="round" stroke-linejoin="round"/>
</g>
</g>
</svg>
